<svg width="34" height="34" viewBox="0 0 34 34" fill="none" xmlns="http://www.w3.org/2000/svg">
<path d="M16.9373 1C14.1035 1.0111 11.3235 1.7745 8.88152 3.2124C6.43958 4.6503 4.42337 6.7109 3.03903 9.18359C1.65468 11.6563 0.951901 14.4525 1.00256 17.2859C1.05321 20.1193 1.85548 22.8882 3.32733 25.3098L1.89733 31.0398C1.84711 31.2373 1.84803 31.4445 1.89999 31.6416C1.95195 31.8387 2.05322 32.0192 2.1943 32.1663C2.33537 32.3133 2.51159 32.4221 2.70632 32.4822C2.90105 32.5423 3.1079 32.552 3.30734 32.51L9.71734 31.1799C11.8672 32.2685 14.2358 32.8556 16.6452 32.8975C19.0546 32.9393 21.4422 32.4346 23.6286 31.4214C25.815 30.4082 27.7434 28.9127 29.2689 27.0474C30.7945 25.182 31.8776 22.9951 32.4368 20.6511C32.996 18.3071 33.0168 15.8671 32.4976 13.5139C31.9785 11.1607 30.9329 8.95559 29.4394 7.06445C27.9459 5.17332 26.0433 3.64535 23.8745 2.59497C21.7057 1.54459 19.3271 0.999271 16.9173 1H16.9373Z" stroke="url(#paint0_linear_16_28)" stroke-linecap="round" stroke-linejoin="round"/>
<path d="M17.7173 8.76001L20.0173 13.3999C20.0345 13.4384 20.0607 13.4722 20.0938 13.4983C20.1269 13.5244 20.1659 13.5421 20.2073 13.5498L25.3273 14.2898C25.3743 14.2979 25.4182 14.3188 25.4541 14.3501C25.49 14.3814 25.5167 14.4219 25.5311 14.4673C25.5456 14.5127 25.5473 14.5614 25.536 14.6077C25.5248 14.654 25.501 14.6963 25.4673 14.73L21.7673 18.3398C21.7381 18.3701 21.7158 18.4063 21.702 18.446C21.6882 18.4858 21.6832 18.528 21.6873 18.5698L22.5673 23.6699C22.575 23.7178 22.5691 23.7668 22.5504 23.8115C22.5316 23.8562 22.5007 23.8948 22.4612 23.9229C22.4217 23.9509 22.3751 23.9675 22.3267 23.9705C22.2783 23.9735 22.23 23.9629 22.1873 23.9399L17.6073 21.5398C17.5705 21.5197 17.5293 21.5093 17.4873 21.5093C17.4454 21.5093 17.4041 21.5197 17.3673 21.5398L12.7873 23.9399C12.7453 23.9644 12.6971 23.9761 12.6486 23.9736C12.6001 23.9711 12.5533 23.9544 12.5141 23.9258C12.4748 23.8971 12.4447 23.8577 12.4276 23.8123C12.4104 23.7668 12.4068 23.7174 12.4173 23.6699L13.2873 18.5698C13.2959 18.5287 13.294 18.4862 13.2818 18.446C13.2696 18.4058 13.2474 18.3692 13.2173 18.3398L9.50732 14.73C9.47365 14.6963 9.44988 14.654 9.43863 14.6077C9.42738 14.5614 9.42906 14.5127 9.44351 14.4673C9.45796 14.4219 9.48463 14.3814 9.52057 14.3501C9.55651 14.3188 9.60037 14.2979 9.64734 14.2898L14.7773 13.5498C14.8179 13.54 14.8559 13.5215 14.8887 13.4956C14.9215 13.4697 14.9484 13.4371 14.9673 13.3999L17.2573 8.76001C17.2794 8.71814 17.3125 8.6829 17.353 8.65845C17.3936 8.63399 17.44 8.62109 17.4873 8.62109C17.5347 8.62109 17.5811 8.63399 17.6216 8.65845C17.6622 8.6829 17.6953 8.71814 17.7173 8.76001Z" stroke="url(#paint1_linear_16_28)" stroke-linecap="round" stroke-linejoin="round"/>
<defs>
<linearGradient id="paint0_linear_16_28" x1="0.487332" y1="16.9499" x2="33.3873" y2="16.9499" gradientUnits="userSpaceOnUse">
<stop stop-color="#673435"/>
<stop offset="0.03" stop-color="#613231"/>
<stop offset="0.14" stop-color="#502C24"/>
<stop offset="0.28" stop-color="#45271B"/>
<stop offset="0.47" stop-color="#3E2516"/>
<stop offset="1" stop-color="#3C2415"/>
</linearGradient>
<linearGradient id="paint1_linear_16_28" x1="8.92732" y1="16.2999" x2="26.0473" y2="16.2999" gradientUnits="userSpaceOnUse">
<stop stop-color="#673435"/>
<stop offset="0.03" stop-color="#613231"/>
<stop offset="0.14" stop-color="#502C24"/>
<stop offset="0.28" stop-color="#45271B"/>
<stop offset="0.47" stop-color="#3E2516"/>
<stop offset="1" stop-color="#3C2415"/>
</linearGradient>
</defs>
</svg>
