<svg width="38" height="33" viewBox="0 0 38 33" fill="none" xmlns="http://www.w3.org/2000/svg">
<path d="M36.97 1H1V8.11H36.97V1Z" stroke="url(#paint0_linear_631_168)" stroke-width="0.95" stroke-linecap="round" stroke-linejoin="round"/>
<path d="M5.50964 8.14014H1.01965C0.99912 8.44756 1.04194 8.75595 1.14547 9.04614C1.249 9.33633 1.41104 9.60215 1.62152 9.82715C1.832 10.0522 2.08643 10.2316 2.36908 10.3542C2.65172 10.4769 2.95654 10.54 3.26464 10.54C3.57275 10.54 3.87757 10.4769 4.16021 10.3542C4.44286 10.2316 4.69729 10.0522 4.90777 9.82715C5.11825 9.60215 5.28029 9.33633 5.38382 9.04614C5.48734 8.75595 5.53017 8.44756 5.50964 8.14014Z" stroke="url(#paint1_linear_631_168)" stroke-width="0.95" stroke-linecap="round" stroke-linejoin="round"/>
<path d="M9.99987 8.14014H5.50988C5.48935 8.44756 5.53218 8.75595 5.63571 9.04614C5.73924 9.33633 5.90127 9.60215 6.11175 9.82715C6.32223 10.0522 6.57666 10.2316 6.85931 10.3542C7.14195 10.4769 7.44678 10.54 7.75488 10.54C8.06298 10.54 8.3678 10.4769 8.65045 10.3542C8.93309 10.2316 9.18756 10.0522 9.39804 9.82715C9.60851 9.60215 9.77052 9.33633 9.87405 9.04614C9.97758 8.75595 10.0204 8.44756 9.99987 8.14014Z" stroke="url(#paint2_linear_631_168)" stroke-width="0.95" stroke-linecap="round" stroke-linejoin="round"/>
<path d="M14.5 8.14014H10C10 8.73687 10.2371 9.30924 10.659 9.7312C11.081 10.1532 11.6533 10.3901 12.25 10.3901C12.8467 10.3901 13.419 10.1532 13.841 9.7312C14.263 9.30924 14.5 8.73687 14.5 8.14014Z" stroke="url(#paint3_linear_631_168)" stroke-width="0.95" stroke-linecap="round" stroke-linejoin="round"/>
<path d="M18.9491 8.14014H14.4591C14.4386 8.44756 14.4814 8.75595 14.5849 9.04614C14.6885 9.33633 14.8505 9.60215 15.0609 9.82715C15.2714 10.0522 15.5259 10.2316 15.8085 10.3542C16.0912 10.4769 16.396 10.54 16.7041 10.54C17.0122 10.54 17.317 10.4769 17.5997 10.3542C17.8823 10.2316 18.1367 10.0522 18.3472 9.82715C18.5577 9.60215 18.7197 9.33633 18.8233 9.04614C18.9268 8.75595 18.9696 8.44756 18.9491 8.14014Z" stroke="url(#paint4_linear_631_168)" stroke-width="0.95" stroke-linecap="round" stroke-linejoin="round"/>
<path d="M23.4793 8.14014H18.9493C18.9288 8.44756 18.9716 8.75595 19.0752 9.04614C19.1787 9.33633 19.3407 9.60215 19.5512 9.82715C19.7617 10.0522 20.0161 10.2316 20.2988 10.3542C20.5814 10.4769 20.8862 10.54 21.1943 10.54C21.5024 10.54 21.8073 10.4769 22.0899 10.3542C22.3725 10.2316 22.627 10.0522 22.8375 9.82715C23.048 9.60215 23.21 9.33633 23.3135 9.04614C23.417 8.75595 23.4599 8.44756 23.4393 8.14014H23.4793Z" stroke="url(#paint5_linear_631_168)" stroke-width="0.95" stroke-linecap="round" stroke-linejoin="round"/>
<path d="M27.9491 8.14014H23.4591C23.4386 8.44756 23.4814 8.75595 23.5849 9.04614C23.6885 9.33633 23.8505 9.60215 24.0609 9.82715C24.2714 10.0522 24.5259 10.2316 24.8085 10.3542C25.0912 10.4769 25.396 10.54 25.7041 10.54C26.0122 10.54 26.317 10.4769 26.5997 10.3542C26.8823 10.2316 27.1367 10.0522 27.3472 9.82715C27.5577 9.60215 27.7197 9.33633 27.8233 9.04614C27.9268 8.75595 27.9696 8.44756 27.9491 8.14014Z" stroke="url(#paint6_linear_631_168)" stroke-width="0.95" stroke-linecap="round" stroke-linejoin="round"/>
<path d="M32.4693 8.14014H27.9493C27.9288 8.44756 27.9716 8.75595 28.0752 9.04614C28.1787 9.33633 28.3407 9.60215 28.5512 9.82715C28.7617 10.0522 29.0161 10.2316 29.2988 10.3542C29.5814 10.4769 29.8862 10.54 30.1943 10.54C30.5024 10.54 30.8073 10.4769 31.0899 10.3542C31.3725 10.2316 31.627 10.0522 31.8375 9.82715C32.048 9.60215 32.21 9.33633 32.3135 9.04614C32.417 8.75595 32.4599 8.44756 32.4393 8.14014H32.4693Z" stroke="url(#paint7_linear_631_168)" stroke-width="0.95" stroke-linecap="round" stroke-linejoin="round"/>
<path d="M36.9491 8.14014H32.4591C32.4386 8.44756 32.4814 8.75595 32.5849 9.04614C32.6885 9.33633 32.8505 9.60215 33.0609 9.82715C33.2714 10.0522 33.5259 10.2316 33.8085 10.3542C34.0912 10.4769 34.396 10.54 34.7041 10.54C35.0122 10.54 35.317 10.4769 35.5997 10.3542C35.8823 10.2316 36.1367 10.0522 36.3472 9.82715C36.5577 9.60215 36.7197 9.33633 36.8233 9.04614C36.9268 8.75595 36.9696 8.44756 36.9491 8.14014Z" stroke="url(#paint8_linear_631_168)" stroke-width="0.95" stroke-linecap="round" stroke-linejoin="round"/>
<path d="M35.6093 10.52V31.97H2.31934V10.48" stroke="url(#paint9_linear_631_168)" stroke-width="0.95" stroke-linecap="round" stroke-linejoin="round"/>
<path d="M23.1198 13.1301H14.7998V31.9701H23.1198V13.1301Z" stroke="url(#paint10_linear_631_168)" stroke-width="0.95" stroke-linecap="round" stroke-linejoin="round"/>
<path d="M35.6095 11.1499V31.9699H29.7695" stroke="url(#paint11_linear_631_168)" stroke-width="0.95" stroke-linecap="round" stroke-linejoin="round"/>
<path d="M12.6096 10.4899V31.9699H4.37957L4.30957 10.1799" stroke="url(#paint12_linear_631_168)" stroke-width="0.96" stroke-linecap="round" stroke-linejoin="round"/>
<path d="M33.3899 10.1799V31.9699H25.1699V10.6799" stroke="url(#paint13_linear_631_168)" stroke-width="0.96" stroke-linecap="round" stroke-linejoin="round"/>
<defs>
<linearGradient id="paint0_linear_631_168" x1="0.52" y1="4.55" x2="37.44" y2="4.55" gradientUnits="userSpaceOnUse">
<stop stop-color="#673435"/>
<stop offset="0.03" stop-color="#613231"/>
<stop offset="0.14" stop-color="#502C24"/>
<stop offset="0.28" stop-color="#45271B"/>
<stop offset="0.47" stop-color="#3E2516"/>
<stop offset="1" stop-color="#3C2415"/>
</linearGradient>
<linearGradient id="paint1_linear_631_168" x1="0.53965" y1="9.29013" x2="5.98964" y2="9.29013" gradientUnits="userSpaceOnUse">
<stop stop-color="#673435"/>
<stop offset="0.03" stop-color="#613231"/>
<stop offset="0.14" stop-color="#502C24"/>
<stop offset="0.28" stop-color="#45271B"/>
<stop offset="0.47" stop-color="#3E2516"/>
<stop offset="1" stop-color="#3C2415"/>
</linearGradient>
<linearGradient id="paint2_linear_631_168" x1="5.03988" y1="9.29013" x2="10.4799" y2="9.29013" gradientUnits="userSpaceOnUse">
<stop stop-color="#673435"/>
<stop offset="0.03" stop-color="#613231"/>
<stop offset="0.14" stop-color="#502C24"/>
<stop offset="0.28" stop-color="#45271B"/>
<stop offset="0.47" stop-color="#3E2516"/>
<stop offset="1" stop-color="#3C2415"/>
</linearGradient>
<linearGradient id="paint3_linear_631_168" x1="9.53" y1="9.29014" x2="14.97" y2="9.29014" gradientUnits="userSpaceOnUse">
<stop stop-color="#673435"/>
<stop offset="0.03" stop-color="#613231"/>
<stop offset="0.14" stop-color="#502C24"/>
<stop offset="0.28" stop-color="#45271B"/>
<stop offset="0.47" stop-color="#3E2516"/>
<stop offset="1" stop-color="#3C2415"/>
</linearGradient>
<linearGradient id="paint4_linear_631_168" x1="14.0191" y1="9.29013" x2="19.4691" y2="9.29013" gradientUnits="userSpaceOnUse">
<stop stop-color="#673435"/>
<stop offset="0.03" stop-color="#613231"/>
<stop offset="0.14" stop-color="#502C24"/>
<stop offset="0.28" stop-color="#45271B"/>
<stop offset="0.47" stop-color="#3E2516"/>
<stop offset="1" stop-color="#3C2415"/>
</linearGradient>
<linearGradient id="paint5_linear_631_168" x1="18.5093" y1="9.29013" x2="23.9593" y2="9.29013" gradientUnits="userSpaceOnUse">
<stop stop-color="#673435"/>
<stop offset="0.03" stop-color="#613231"/>
<stop offset="0.14" stop-color="#502C24"/>
<stop offset="0.28" stop-color="#45271B"/>
<stop offset="0.47" stop-color="#3E2516"/>
<stop offset="1" stop-color="#3C2415"/>
</linearGradient>
<linearGradient id="paint6_linear_631_168" x1="23.0091" y1="9.29013" x2="28.4491" y2="9.29013" gradientUnits="userSpaceOnUse">
<stop stop-color="#673435"/>
<stop offset="0.03" stop-color="#613231"/>
<stop offset="0.14" stop-color="#502C24"/>
<stop offset="0.28" stop-color="#45271B"/>
<stop offset="0.47" stop-color="#3E2516"/>
<stop offset="1" stop-color="#3C2415"/>
</linearGradient>
<linearGradient id="paint7_linear_631_168" x1="27.4993" y1="9.29013" x2="32.9393" y2="9.29013" gradientUnits="userSpaceOnUse">
<stop stop-color="#673435"/>
<stop offset="0.03" stop-color="#613231"/>
<stop offset="0.14" stop-color="#502C24"/>
<stop offset="0.28" stop-color="#45271B"/>
<stop offset="0.47" stop-color="#3E2516"/>
<stop offset="1" stop-color="#3C2415"/>
</linearGradient>
<linearGradient id="paint8_linear_631_168" x1="31.9891" y1="9.29013" x2="37.4391" y2="9.29013" gradientUnits="userSpaceOnUse">
<stop stop-color="#673435"/>
<stop offset="0.03" stop-color="#613231"/>
<stop offset="0.14" stop-color="#502C24"/>
<stop offset="0.28" stop-color="#45271B"/>
<stop offset="0.47" stop-color="#3E2516"/>
<stop offset="1" stop-color="#3C2415"/>
</linearGradient>
<linearGradient id="paint9_linear_631_168" x1="1.83934" y1="21.23" x2="36.0893" y2="21.23" gradientUnits="userSpaceOnUse">
<stop stop-color="#673435"/>
<stop offset="0.03" stop-color="#613231"/>
<stop offset="0.14" stop-color="#502C24"/>
<stop offset="0.28" stop-color="#45271B"/>
<stop offset="0.47" stop-color="#3E2516"/>
<stop offset="1" stop-color="#3C2415"/>
</linearGradient>
<linearGradient id="paint10_linear_631_168" x1="14.3298" y1="22.5501" x2="23.5998" y2="22.5501" gradientUnits="userSpaceOnUse">
<stop stop-color="#673435"/>
<stop offset="0.03" stop-color="#613231"/>
<stop offset="0.14" stop-color="#502C24"/>
<stop offset="0.28" stop-color="#45271B"/>
<stop offset="0.47" stop-color="#3E2516"/>
<stop offset="1" stop-color="#3C2415"/>
</linearGradient>
<linearGradient id="paint11_linear_631_168" x1="29.2895" y1="21.5599" x2="36.0895" y2="21.5599" gradientUnits="userSpaceOnUse">
<stop stop-color="#673435"/>
<stop offset="0.03" stop-color="#613231"/>
<stop offset="0.14" stop-color="#502C24"/>
<stop offset="0.28" stop-color="#45271B"/>
<stop offset="0.47" stop-color="#3E2516"/>
<stop offset="1" stop-color="#3C2415"/>
</linearGradient>
<linearGradient id="paint12_linear_631_168" x1="3.81957" y1="21.0799" x2="13.0896" y2="21.0799" gradientUnits="userSpaceOnUse">
<stop stop-color="#673435"/>
<stop offset="0.03" stop-color="#613231"/>
<stop offset="0.14" stop-color="#502C24"/>
<stop offset="0.28" stop-color="#45271B"/>
<stop offset="0.47" stop-color="#3E2516"/>
<stop offset="1" stop-color="#3C2415"/>
</linearGradient>
<linearGradient id="paint13_linear_631_168" x1="24.6899" y1="21.0799" x2="33.8799" y2="21.0799" gradientUnits="userSpaceOnUse">
<stop stop-color="#673435"/>
<stop offset="0.03" stop-color="#613231"/>
<stop offset="0.14" stop-color="#502C24"/>
<stop offset="0.28" stop-color="#45271B"/>
<stop offset="0.47" stop-color="#3E2516"/>
<stop offset="1" stop-color="#3C2415"/>
</linearGradient>
</defs>
</svg>
