<svg width="34" height="32" viewBox="0 0 34 32" fill="none" xmlns="http://www.w3.org/2000/svg">
<path d="M5.75 10.5C8.37335 10.5 10.5 8.37335 10.5 5.75C10.5 3.12665 8.37335 1 5.75 1C3.12665 1 1 3.12665 1 5.75C1 8.37335 3.12665 10.5 5.75 10.5Z" stroke="url(#paint0_linear_16_79)" stroke-linecap="round" stroke-linejoin="round"/>
<path d="M25.66 16.5498C28.2833 16.5498 30.41 14.4232 30.41 11.7998C30.41 9.17645 28.2833 7.0498 25.66 7.0498C23.0366 7.0498 20.91 9.17645 20.91 11.7998C20.91 14.4232 23.0366 16.5498 25.66 16.5498Z" stroke="url(#paint1_linear_16_79)" stroke-linecap="round" stroke-linejoin="round"/>
<path d="M29.72 30.6899C31.526 30.6899 32.99 29.2259 32.99 27.4199C32.99 25.6139 31.526 24.1499 29.72 24.1499C27.914 24.1499 26.45 25.6139 26.45 27.4199C26.45 29.2259 27.914 30.6899 29.72 30.6899Z" stroke="url(#paint2_linear_16_79)" stroke-linecap="round" stroke-linejoin="round"/>
<path d="M12.79 27.7898C16.1589 27.7898 18.89 25.0588 18.89 21.6898C18.89 18.3209 16.1589 15.5898 12.79 15.5898C9.42107 15.5898 6.69 18.3209 6.69 21.6898C6.69 25.0588 9.42107 27.7898 12.79 27.7898Z" stroke="url(#paint3_linear_16_79)" stroke-linecap="round" stroke-linejoin="round"/>
<path d="M7.51001 10.1699L9.98001 16.2799" stroke="url(#paint4_linear_16_79)" stroke-linecap="round" stroke-linejoin="round"/>
<path d="M17.79 18.1899L22.1 14.9399" stroke="url(#paint5_linear_16_79)" stroke-linecap="round" stroke-linejoin="round"/>
<path d="M27.28 16.2803L28.89 24.2603" stroke="url(#paint6_linear_16_79)" stroke-linecap="round" stroke-linejoin="round"/>
<defs>
<linearGradient id="paint0_linear_16_79" x1="0.5" y1="5.75" x2="11.01" y2="5.75" gradientUnits="userSpaceOnUse">
<stop stop-color="#673435"/>
<stop offset="0.03" stop-color="#613231"/>
<stop offset="0.14" stop-color="#502C24"/>
<stop offset="0.28" stop-color="#45271B"/>
<stop offset="0.47" stop-color="#3E2516"/>
<stop offset="1" stop-color="#3C2415"/>
</linearGradient>
<linearGradient id="paint1_linear_16_79" x1="20.41" y1="11.7998" x2="30.92" y2="11.7998" gradientUnits="userSpaceOnUse">
<stop stop-color="#673435"/>
<stop offset="0.03" stop-color="#613231"/>
<stop offset="0.14" stop-color="#502C24"/>
<stop offset="0.28" stop-color="#45271B"/>
<stop offset="0.47" stop-color="#3E2516"/>
<stop offset="1" stop-color="#3C2415"/>
</linearGradient>
<linearGradient id="paint2_linear_16_79" x1="25.95" y1="27.4199" x2="33.48" y2="27.4199" gradientUnits="userSpaceOnUse">
<stop stop-color="#673435"/>
<stop offset="0.03" stop-color="#613231"/>
<stop offset="0.14" stop-color="#502C24"/>
<stop offset="0.28" stop-color="#45271B"/>
<stop offset="0.47" stop-color="#3E2516"/>
<stop offset="1" stop-color="#3C2415"/>
</linearGradient>
<linearGradient id="paint3_linear_16_79" x1="6.19" y1="21.6898" x2="19.39" y2="21.6898" gradientUnits="userSpaceOnUse">
<stop stop-color="#673435"/>
<stop offset="0.03" stop-color="#613231"/>
<stop offset="0.14" stop-color="#502C24"/>
<stop offset="0.28" stop-color="#45271B"/>
<stop offset="0.47" stop-color="#3E2516"/>
<stop offset="1" stop-color="#3C2415"/>
</linearGradient>
<linearGradient id="paint4_linear_16_79" x1="7.01001" y1="13.2199" x2="10.48" y2="13.2199" gradientUnits="userSpaceOnUse">
<stop stop-color="#673435"/>
<stop offset="0.03" stop-color="#613231"/>
<stop offset="0.14" stop-color="#502C24"/>
<stop offset="0.28" stop-color="#45271B"/>
<stop offset="0.47" stop-color="#3E2516"/>
<stop offset="1" stop-color="#3C2415"/>
</linearGradient>
<linearGradient id="paint5_linear_16_79" x1="17.29" y1="16.5699" x2="22.6" y2="16.5699" gradientUnits="userSpaceOnUse">
<stop stop-color="#673435"/>
<stop offset="0.03" stop-color="#613231"/>
<stop offset="0.14" stop-color="#502C24"/>
<stop offset="0.28" stop-color="#45271B"/>
<stop offset="0.47" stop-color="#3E2516"/>
<stop offset="1" stop-color="#3C2415"/>
</linearGradient>
<linearGradient id="paint6_linear_16_79" x1="26.78" y1="20.2703" x2="29.39" y2="20.2703" gradientUnits="userSpaceOnUse">
<stop stop-color="#673435"/>
<stop offset="0.03" stop-color="#613231"/>
<stop offset="0.14" stop-color="#502C24"/>
<stop offset="0.28" stop-color="#45271B"/>
<stop offset="0.47" stop-color="#3E2516"/>
<stop offset="1" stop-color="#3C2415"/>
</linearGradient>
</defs>
</svg>
