<svg width="29" height="42" viewBox="0 0 29 42" fill="none" xmlns="http://www.w3.org/2000/svg">
<path d="M22.1079 10.5845C22.5146 11.8192 22.7041 13.1151 22.6679 14.4146C22.6679 19.6446 18.9579 24.4146 14.3779 24.4146C9.79787 24.4146 6.09787 19.6146 6.09787 14.4146C6.09098 13.2218 6.24914 12.0339 6.56787 10.8845" stroke="url(#paint0_linear_630_140)" stroke-width="0.95" stroke-linecap="round" stroke-linejoin="round"/>
<path d="M22.6679 13.6545C24.5179 13.6545 24.5379 15.5944 23.7779 16.7944C23.353 17.3004 22.773 17.6519 22.1279 17.7944" stroke="url(#paint1_linear_630_140)" stroke-width="0.95" stroke-linecap="round" stroke-linejoin="round"/>
<path d="M6.03808 13.6545C4.18808 13.6545 4.16807 15.5944 4.92807 16.7944C5.35036 17.2985 5.92659 17.6498 6.56808 17.7944" stroke="url(#paint2_linear_630_140)" stroke-width="0.95" stroke-linecap="round" stroke-linejoin="round"/>
<path d="M6.19824 12.7944C8.80824 12.5944 11.3582 11.0745 11.4282 10.0645C11.8682 11.1445 17.8982 13.0645 22.5482 12.6345" stroke="url(#paint3_linear_630_140)" stroke-width="0.95" stroke-linecap="round" stroke-linejoin="round"/>
<path d="M13.208 19.3445C13.308 20.6845 15.708 20.4545 15.568 19.3445" stroke="url(#paint4_linear_630_140)" stroke-width="0.95" stroke-linecap="round" stroke-linejoin="round"/>
<path d="M9.66797 16.0143C9.78188 15.7819 9.95674 15.5849 10.1739 15.444C10.391 15.3032 10.6423 15.2238 10.901 15.2145C11.1597 15.2053 11.416 15.2665 11.6426 15.3915C11.8693 15.5165 12.0578 15.7005 12.188 15.9242" stroke="url(#paint5_linear_630_140)" stroke-width="0.95" stroke-linecap="round" stroke-linejoin="round"/>
<path d="M16.3584 16.0143C16.4723 15.7819 16.6471 15.5849 16.8643 15.444C17.0814 15.3032 17.3328 15.2238 17.5914 15.2145C17.8501 15.2053 18.1064 15.2665 18.3331 15.3915C18.5597 15.5165 18.7482 15.7005 18.8784 15.9242" stroke="url(#paint6_linear_630_140)" stroke-width="0.95" stroke-linecap="round" stroke-linejoin="round"/>
<path d="M6.30863 26.2043C0.208635 26.8443 0.948632 38.3945 1.11863 40.8545C11.2486 40.6145 27.9686 40.8545 27.9686 40.8545C27.9686 40.8545 28.9686 26.3343 22.0586 26.2043" stroke="url(#paint7_linear_630_140)" stroke-width="0.95" stroke-linecap="round" stroke-linejoin="round"/>
<path d="M21.4883 27.2344V32.7544" stroke="url(#paint8_linear_630_140)" stroke-width="0.95" stroke-linecap="round" stroke-linejoin="round"/>
<path d="M23.5586 26.6345V40.7545" stroke="url(#paint9_linear_630_140)" stroke-width="0.95" stroke-linecap="round" stroke-linejoin="round"/>
<path d="M13.8912 28.7091L9.23136 24.0492C8.87598 23.6939 8.29986 23.6938 7.94449 24.0492L6.6575 25.3361C6.30213 25.6915 6.30219 26.2676 6.65757 26.623L11.3174 31.2829C11.6728 31.6382 12.2489 31.6383 12.6043 31.2829L13.8913 29.9959C14.2466 29.6406 14.2466 29.0644 13.8912 28.7091Z" stroke="url(#paint10_linear_630_140)" stroke-width="0.95" stroke-linecap="round" stroke-linejoin="round"/>
<path d="M17.1664 31.2747L21.8263 26.6149C22.1816 26.2595 22.1817 25.6834 21.8263 25.328L20.5393 24.041C20.184 23.6857 19.6078 23.6857 19.2525 24.0411L14.5926 28.7009C14.2373 29.0563 14.2372 29.6324 14.5926 29.9878L15.8796 31.2748C16.2349 31.6302 16.811 31.6301 17.1664 31.2747Z" stroke="url(#paint11_linear_630_140)" stroke-width="0.95" stroke-linecap="round" stroke-linejoin="round"/>
<path d="M10.1882 23.1646L9.4082 24.2246" stroke="url(#paint12_linear_630_140)" stroke-width="0.95" stroke-linecap="round" stroke-linejoin="round"/>
<path d="M18.5186 23.1646L19.1486 24.1346" stroke="url(#paint13_linear_630_140)" stroke-width="0.95" stroke-linecap="round" stroke-linejoin="round"/>
<path d="M6.93848 32.7544H21.4885" stroke="url(#paint14_linear_630_140)" stroke-width="0.95" stroke-linecap="round" stroke-linejoin="round"/>
<path d="M5.06836 35.0544H23.5584" stroke="url(#paint15_linear_630_140)" stroke-width="0.95" stroke-linecap="round" stroke-linejoin="round"/>
<path d="M23.0085 8.79434L22.5685 10.6344C17.0828 9.40941 11.3808 9.54318 5.95853 11.0243L5.51855 9.26431C8.40268 8.44251 11.3726 7.95931 14.3685 7.82437C17.2762 7.81609 20.1751 8.14152 23.0085 8.79434Z" stroke="url(#paint16_linear_630_140)" stroke-width="0.95" stroke-linecap="round" stroke-linejoin="round"/>
<path d="M23.0085 8.79431C23.5046 7.97203 23.7961 7.0427 23.8585 6.08435C23.8375 5.17635 23.4572 4.31369 22.8011 3.68567C22.1449 3.05766 21.2665 2.71548 20.3585 2.73426C19.6901 2.73223 19.0349 2.91949 18.4685 3.2743C18.0079 2.55067 17.3658 1.96041 16.6061 1.56214C15.8464 1.16387 14.9956 0.97146 14.1385 1.00428C13.2625 0.967514 12.3929 1.16834 11.6218 1.58557C10.8508 2.00281 10.2069 2.62102 9.75847 3.37439C9.27748 3.14486 8.75141 3.02521 8.21846 3.0243C6.28846 3.0243 4.45845 4.37424 4.45845 6.21424C4.43075 7.28043 4.80975 8.31737 5.51848 9.11438" stroke="url(#paint17_linear_630_140)" stroke-width="0.95" stroke-linecap="round" stroke-linejoin="round"/>
<path d="M5.06836 26.6145V40.7545" stroke="url(#paint18_linear_630_140)" stroke-width="0.95" stroke-linecap="round" stroke-linejoin="round"/>
<path d="M6.93848 27.0344V32.7544" stroke="url(#paint19_linear_630_140)" stroke-width="0.95" stroke-linecap="round" stroke-linejoin="round"/>
<defs>
<linearGradient id="paint0_linear_630_140" x1="5.62787" y1="17.5145" x2="23.1379" y2="17.5145" gradientUnits="userSpaceOnUse">
<stop stop-color="#673435"/>
<stop offset="0.03" stop-color="#613231"/>
<stop offset="0.14" stop-color="#502C24"/>
<stop offset="0.28" stop-color="#45271B"/>
<stop offset="0.47" stop-color="#3E2516"/>
<stop offset="1" stop-color="#3C2415"/>
</linearGradient>
<linearGradient id="paint1_linear_630_140" x1="21.6579" y1="15.7445" x2="24.7279" y2="15.7445" gradientUnits="userSpaceOnUse">
<stop stop-color="#673435"/>
<stop offset="0.03" stop-color="#613231"/>
<stop offset="0.14" stop-color="#502C24"/>
<stop offset="0.28" stop-color="#45271B"/>
<stop offset="0.47" stop-color="#3E2516"/>
<stop offset="1" stop-color="#3C2415"/>
</linearGradient>
<linearGradient id="paint2_linear_630_140" x1="3.97807" y1="15.7445" x2="7.04809" y2="15.7445" gradientUnits="userSpaceOnUse">
<stop stop-color="#673435"/>
<stop offset="0.03" stop-color="#613231"/>
<stop offset="0.14" stop-color="#502C24"/>
<stop offset="0.28" stop-color="#45271B"/>
<stop offset="0.47" stop-color="#3E2516"/>
<stop offset="1" stop-color="#3C2415"/>
</linearGradient>
<linearGradient id="paint3_linear_630_140" x1="5.71824" y1="11.3944" x2="23.0282" y2="11.3944" gradientUnits="userSpaceOnUse">
<stop stop-color="#673435"/>
<stop offset="0.03" stop-color="#613231"/>
<stop offset="0.14" stop-color="#502C24"/>
<stop offset="0.28" stop-color="#45271B"/>
<stop offset="0.47" stop-color="#3E2516"/>
<stop offset="1" stop-color="#3C2415"/>
</linearGradient>
<linearGradient id="paint4_linear_630_140" x1="12.728" y1="19.8045" x2="16.048" y2="19.8045" gradientUnits="userSpaceOnUse">
<stop stop-color="#673435"/>
<stop offset="0.03" stop-color="#613231"/>
<stop offset="0.14" stop-color="#502C24"/>
<stop offset="0.28" stop-color="#45271B"/>
<stop offset="0.47" stop-color="#3E2516"/>
<stop offset="1" stop-color="#3C2415"/>
</linearGradient>
<linearGradient id="paint5_linear_630_140" x1="9.19797" y1="15.6143" x2="12.658" y2="15.6143" gradientUnits="userSpaceOnUse">
<stop stop-color="#673435"/>
<stop offset="0.03" stop-color="#613231"/>
<stop offset="0.14" stop-color="#502C24"/>
<stop offset="0.28" stop-color="#45271B"/>
<stop offset="0.47" stop-color="#3E2516"/>
<stop offset="1" stop-color="#3C2415"/>
</linearGradient>
<linearGradient id="paint6_linear_630_140" x1="15.8884" y1="15.6143" x2="19.3584" y2="15.6143" gradientUnits="userSpaceOnUse">
<stop stop-color="#673435"/>
<stop offset="0.03" stop-color="#613231"/>
<stop offset="0.14" stop-color="#502C24"/>
<stop offset="0.28" stop-color="#45271B"/>
<stop offset="0.47" stop-color="#3E2516"/>
<stop offset="1" stop-color="#3C2415"/>
</linearGradient>
<linearGradient id="paint7_linear_630_140" x1="0.528633" y1="33.5344" x2="28.4886" y2="33.5344" gradientUnits="userSpaceOnUse">
<stop stop-color="#673435"/>
<stop offset="0.03" stop-color="#613231"/>
<stop offset="0.14" stop-color="#502C24"/>
<stop offset="0.28" stop-color="#45271B"/>
<stop offset="0.47" stop-color="#3E2516"/>
<stop offset="1" stop-color="#3C2415"/>
</linearGradient>
<linearGradient id="paint8_linear_630_140" x1="-nan" y1="-nan" x2="-nan" y2="-nan" gradientUnits="userSpaceOnUse">
<stop stop-color="#673435"/>
<stop offset="0.03" stop-color="#613231"/>
<stop offset="0.14" stop-color="#502C24"/>
<stop offset="0.28" stop-color="#45271B"/>
<stop offset="0.47" stop-color="#3E2516"/>
<stop offset="1" stop-color="#3C2415"/>
</linearGradient>
<linearGradient id="paint9_linear_630_140" x1="-nan" y1="-nan" x2="-nan" y2="-nan" gradientUnits="userSpaceOnUse">
<stop stop-color="#673435"/>
<stop offset="0.03" stop-color="#613231"/>
<stop offset="0.14" stop-color="#502C24"/>
<stop offset="0.28" stop-color="#45271B"/>
<stop offset="0.47" stop-color="#3E2516"/>
<stop offset="1" stop-color="#3C2415"/>
</linearGradient>
<linearGradient id="paint10_linear_630_140" x1="5.91148" y1="27.6592" x2="14.6314" y2="27.6591" gradientUnits="userSpaceOnUse">
<stop stop-color="#673435"/>
<stop offset="0.03" stop-color="#613231"/>
<stop offset="0.14" stop-color="#502C24"/>
<stop offset="0.28" stop-color="#45271B"/>
<stop offset="0.47" stop-color="#3E2516"/>
<stop offset="1" stop-color="#3C2415"/>
</linearGradient>
<linearGradient id="paint11_linear_630_140" x1="13.8499" y1="27.6512" x2="22.5698" y2="27.6513" gradientUnits="userSpaceOnUse">
<stop stop-color="#673435"/>
<stop offset="0.03" stop-color="#613231"/>
<stop offset="0.14" stop-color="#502C24"/>
<stop offset="0.28" stop-color="#45271B"/>
<stop offset="0.47" stop-color="#3E2516"/>
<stop offset="1" stop-color="#3C2415"/>
</linearGradient>
<linearGradient id="paint12_linear_630_140" x1="8.9382" y1="23.6946" x2="10.6682" y2="23.6946" gradientUnits="userSpaceOnUse">
<stop stop-color="#673435"/>
<stop offset="0.03" stop-color="#613231"/>
<stop offset="0.14" stop-color="#502C24"/>
<stop offset="0.28" stop-color="#45271B"/>
<stop offset="0.47" stop-color="#3E2516"/>
<stop offset="1" stop-color="#3C2415"/>
</linearGradient>
<linearGradient id="paint13_linear_630_140" x1="18.0386" y1="23.6446" x2="19.6286" y2="23.6446" gradientUnits="userSpaceOnUse">
<stop stop-color="#673435"/>
<stop offset="0.03" stop-color="#613231"/>
<stop offset="0.14" stop-color="#502C24"/>
<stop offset="0.28" stop-color="#45271B"/>
<stop offset="0.47" stop-color="#3E2516"/>
<stop offset="1" stop-color="#3C2415"/>
</linearGradient>
<linearGradient id="paint14_linear_630_140" x1="-nan" y1="-nan" x2="-nan" y2="-nan" gradientUnits="userSpaceOnUse">
<stop stop-color="#673435"/>
<stop offset="0.03" stop-color="#613231"/>
<stop offset="0.14" stop-color="#502C24"/>
<stop offset="0.28" stop-color="#45271B"/>
<stop offset="0.47" stop-color="#3E2516"/>
<stop offset="1" stop-color="#3C2415"/>
</linearGradient>
<linearGradient id="paint15_linear_630_140" x1="-nan" y1="-nan" x2="-nan" y2="-nan" gradientUnits="userSpaceOnUse">
<stop stop-color="#673435"/>
<stop offset="0.03" stop-color="#613231"/>
<stop offset="0.14" stop-color="#502C24"/>
<stop offset="0.28" stop-color="#45271B"/>
<stop offset="0.47" stop-color="#3E2516"/>
<stop offset="1" stop-color="#3C2415"/>
</linearGradient>
<linearGradient id="paint16_linear_630_140" x1="5.03855" y1="9.43435" x2="23.4885" y2="9.43435" gradientUnits="userSpaceOnUse">
<stop stop-color="#673435"/>
<stop offset="0.03" stop-color="#613231"/>
<stop offset="0.14" stop-color="#502C24"/>
<stop offset="0.28" stop-color="#45271B"/>
<stop offset="0.47" stop-color="#3E2516"/>
<stop offset="1" stop-color="#3C2415"/>
</linearGradient>
<linearGradient id="paint17_linear_630_140" x1="3.97845" y1="5.07433" x2="24.3285" y2="5.07433" gradientUnits="userSpaceOnUse">
<stop stop-color="#673435"/>
<stop offset="0.03" stop-color="#613231"/>
<stop offset="0.14" stop-color="#502C24"/>
<stop offset="0.28" stop-color="#45271B"/>
<stop offset="0.47" stop-color="#3E2516"/>
<stop offset="1" stop-color="#3C2415"/>
</linearGradient>
<linearGradient id="paint18_linear_630_140" x1="-nan" y1="-nan" x2="-nan" y2="-nan" gradientUnits="userSpaceOnUse">
<stop stop-color="#673435"/>
<stop offset="0.03" stop-color="#613231"/>
<stop offset="0.14" stop-color="#502C24"/>
<stop offset="0.28" stop-color="#45271B"/>
<stop offset="0.47" stop-color="#3E2516"/>
<stop offset="1" stop-color="#3C2415"/>
</linearGradient>
<linearGradient id="paint19_linear_630_140" x1="-nan" y1="-nan" x2="-nan" y2="-nan" gradientUnits="userSpaceOnUse">
<stop stop-color="#673435"/>
<stop offset="0.03" stop-color="#613231"/>
<stop offset="0.14" stop-color="#502C24"/>
<stop offset="0.28" stop-color="#45271B"/>
<stop offset="0.47" stop-color="#3E2516"/>
<stop offset="1" stop-color="#3C2415"/>
</linearGradient>
</defs>
</svg>
