<?xml version="1.0" standalone="no"?>
  <!DOCTYPE svg PUBLIC "-//W3C//DTD SVG 1.1//EN" "http://www.w3.org/Graphics/SVG/1.1/DTD/svg11.dtd" >
  <svg>
  <metadata>
  Created by font-carrier
  </metadata>
  <defs>
  <font id="KiddyKitty" horiz-adv-x="1201" vert-adv-y="1201" >
    <font-face
      
      font-family="Kiddy Kitty"
      
      font-weight="400"
      
      font-stretch="normal"
      
      units-per-em="1000"
      
      ascent="750"
      
      descent="-250"
      
    />
      <missing-glyph />

      

      
      <glyph glyph-name="uni41" unicode="&#x41;" d="M413 695C365 709 321 714 275 697L-5 30C24-3 66-17 118-11L190 188L458 197L513-8C573-5 622 11 652 46ZM222 288L340 585L432 294Z"  horiz-adv-x="667" vert-adv-y="1000"  />

      
      <glyph glyph-name="unic6" unicode="&#xc6;" d="M438 701C418 701 379 699 360 692L-5 30C23-3 65-17 117-11L216 188L411 197L400-5L875 5C894 45 900 88 872 129L544 101L538 325L827 328C849 365 845 403 826 441L539 426L552 606L860 604C882 637 884 672 866 706ZM253 288L362 485L427 614L433 614L416 294Z"  horiz-adv-x="923" vert-adv-y="1000"  />

      
      <glyph glyph-name="unic1" unicode="&#xc1;" d="M413 695C365 709 321 714 275 697L-5 30C24-3 66-17 118-11L190 188L458 197L513-8C573-5 622 11 652 46ZM222 288L340 585L432 294ZM439 930L263 820C261 794 280 752 298 750L491 813C505 856 474 925 439 930Z"  horiz-adv-x="667" vert-adv-y="1000"  />

      
      <glyph glyph-name="uni0102" unicode="&#x0102;" d="M236 893C225 905 154 900 142 880C154 777 246 748 333 748C423 748 518 779 527 880C518 894 450 903 435 893C427 866 399 845 336 845C272 845 242 864 236 893ZM413 695C365 709 321 714 275 697L-5 30C24-3 66-17 118-11L190 188L458 197L513-8C573-5 622 11 652 46ZM222 288L340 585L432 294Z"  horiz-adv-x="667" vert-adv-y="1000"  />

      
      <glyph glyph-name="unic2" unicode="&#xc2;" d="M413 695C365 709 321 714 275 697L-5 30C24-3 66-17 118-11L190 188L458 197L513-8C573-5 622 11 652 46ZM222 288L340 585L432 294ZM330 790L458 748C479 749 504 781 503 795L365 894C354 902 312 903 305 894L170 795C168 783 183 750 205 747Z"  horiz-adv-x="667" vert-adv-y="1000"  />

      
      <glyph glyph-name="unic4" unicode="&#xc4;" d="M454 746C485 758 517 785 534 820C516 853 490 880 456 897C423 884 393 854 377 823C395 789 420 762 454 746ZM227 748C258 760 290 787 307 822C289 855 263 882 229 899C196 886 166 856 150 825C168 791 193 764 227 748ZM413 695C365 709 321 714 275 697L-5 30C24-3 66-17 118-11L190 188L458 197L513-8C573-5 622 11 652 46ZM222 288L340 585L432 294Z"  horiz-adv-x="667" vert-adv-y="1000"  />

      
      <glyph glyph-name="unic0" unicode="&#xc0;" d="M413 695C365 709 321 714 275 697L-5 30C24-3 66-17 118-11L190 188L458 197L513-8C573-5 622 11 652 46ZM222 288L340 585L432 294ZM207 928C172 923 141 854 155 811L348 748C366 750 385 792 383 818Z"  horiz-adv-x="667" vert-adv-y="1000"  />

      
      <glyph glyph-name="uni0100" unicode="&#x0100;" d="M413 695C365 709 321 714 275 697L-5 30C24-3 66-17 118-11L190 188L458 197L513-8C573-5 622 11 652 46ZM222 288L340 585L432 294ZM185 841C168 830 172 760 193 751L481 751C495 764 500 836 481 849Z"  horiz-adv-x="667" vert-adv-y="1000"  />

      
      <glyph glyph-name="uni0104" unicode="&#x0104;" d="M413 695C365 709 321 714 275 697L-5 30C24-3 66-17 118-11L190 188L458 197L502 33C426-15 382-60 382-128C382-197 447-219 503-219C564-219 608-183 628-148C634-131 606-91 585-94C565-114 550-124 526-124C504-124 494-110 494-94C494-63 538-21 584 3C612 12 635 26 652 46ZM222 288L340 585L432 294Z"  horiz-adv-x="667" vert-adv-y="1000"  />

      
      <glyph glyph-name="unic5" unicode="&#xc5;" d="M211 786C211 746 236 714 274 696L-5 30C24-3 66-17 118-11L190 188L458 197L513-8C573-5 622 11 652 46L413 694C453 712 480 745 480 786C480 845 422 889 345 889C271 889 211 845 211 786ZM222 288L340 585L432 294ZM311 786C311 807 328 820 345 820C364 820 379 805 379 786C379 766 364 751 345 751C328 751 311 765 311 786Z"  horiz-adv-x="667" vert-adv-y="1000"  />

      
      <glyph glyph-name="unic3" unicode="&#xc3;" d="M210 751C227 766 249 779 280 779C331 779 353 748 408 748C458 748 509 782 513 837C508 865 470 887 458 884C442 862 423 853 399 853C361 853 327 886 276 886C223 886 184 854 170 828C166 808 180 752 210 751ZM413 695C365 709 321 714 275 697L-5 30C24-3 66-17 118-11L190 188L458 197L513-8C573-5 622 11 652 46ZM222 288L340 585L432 294Z"  horiz-adv-x="667" vert-adv-y="1000"  />

      
      <glyph glyph-name="uni42" unicode="&#x42;" d="M60 37C128 2 205-14 278-14C442-14 593 65 593 210C593 295 526 357 412 374C498 411 554 460 554 542C554 648 452 714 299 714C239 714 172 704 99 683ZM203 605C239 616 270 620 296 620C381 620 423 575 423 524C423 441 343 415 253 415C238 415 219 416 197 419ZM195 326C214 328 235 328 257 328C367 328 459 296 459 215C459 132 374 89 288 89C250 89 211 98 175 119Z"  horiz-adv-x="623" vert-adv-y="1000"  />

      
      <glyph glyph-name="uni43" unicode="&#x43;" d="M409 705C241 705 42 590 42 330C42 133 149-20 356-20C418-20 498-8 565 22C580 60 567 100 542 126C495 105 448 95 405 95C277 95 177 179 177 339C177 484 288 580 412 580C459 580 506 566 548 532C587 538 609 576 617 621C570 677 492 705 409 705Z"  horiz-adv-x="632" vert-adv-y="1000"  />

      
      <glyph glyph-name="uni0106" unicode="&#x0106;" d="M409 705C241 705 42 590 42 330C42 133 149-20 356-20C418-20 498-8 565 22C580 60 567 100 542 126C495 105 448 95 405 95C277 95 177 179 177 339C177 484 288 580 412 580C459 580 506 566 548 532C587 538 609 576 617 621C570 677 492 705 409 705ZM481 929L305 819C303 793 322 751 340 749L533 812C547 855 516 924 481 929Z"  horiz-adv-x="632" vert-adv-y="1000"  />

      
      <glyph glyph-name="uni010C" unicode="&#x010C;" d="M409 705C241 705 42 590 42 330C42 133 149-20 356-20C418-20 498-8 565 22C580 60 567 100 542 126C495 105 448 95 405 95C277 95 177 179 177 339C177 484 288 580 412 580C459 580 506 566 548 532C587 538 609 576 617 621C570 677 492 705 409 705ZM387 848L256 904C234 904 215 867 220 850L339 758C360 747 408 746 427 758L555 851C557 873 538 901 522 903Z"  horiz-adv-x="632" vert-adv-y="1000"  />

      
      <glyph glyph-name="unic7" unicode="&#xc7;" d="M409 705C241 705 42 590 42 330C42 149 132 5 307-17L276-94C326-100 367-115 367-142C367-171 329-167 264-144C248-141 225-194 237-215C358-272 462-235 462-148C462-96 435-69 378-61L398-18C451-14 512-1 565 22C580 60 567 100 542 126C495 105 448 95 405 95C277 95 177 179 177 339C177 484 288 580 412 580C459 580 506 566 548 532C587 538 609 576 617 621C570 677 492 705 409 705Z"  horiz-adv-x="632" vert-adv-y="1000"  />

      
      <glyph glyph-name="uni0108" unicode="&#x0108;" d="M409 705C241 705 42 590 42 330C42 133 149-20 356-20C418-20 498-8 565 22C580 60 567 100 542 126C495 105 448 95 405 95C277 95 177 179 177 339C177 484 288 580 412 580C459 580 506 566 548 532C587 538 609 576 617 621C570 677 492 705 409 705ZM373 790L501 748C522 749 547 781 546 795L408 894C397 902 355 903 348 894L213 795C211 783 226 750 248 747Z"  horiz-adv-x="632" vert-adv-y="1000"  />

      
      <glyph glyph-name="uni010A" unicode="&#x010A;" d="M377 748C408 760 440 787 457 822C439 855 413 882 379 899C346 886 316 856 300 825C318 791 343 764 377 748ZM409 705C241 705 42 590 42 330C42 133 149-20 356-20C418-20 498-8 565 22C580 60 567 100 542 126C495 105 448 95 405 95C277 95 177 179 177 339C177 484 288 580 412 580C459 580 506 566 548 532C587 538 609 576 617 621C570 677 492 705 409 705Z"  horiz-adv-x="632" vert-adv-y="1000"  />

      
      <glyph glyph-name="uni44" unicode="&#x44;" d="M318-22C517-22 658 140 658 387C658 601 518 719 346 719C261 719 179 704 86 673L60 10C128-8 220-22 318-22ZM202 575C413 637 524 559 524 363C524 117 371 40 172 97Z"  horiz-adv-x="704" vert-adv-y="1000"  />

      
      <glyph glyph-name="uni010E" unicode="&#x010E;" d="M318-22C517-22 658 140 658 387C658 601 518 719 346 719C261 719 179 704 86 673L60 10C128-8 220-22 318-22ZM202 575C413 637 524 559 524 363C524 117 371 40 172 97ZM337 845L206 901C184 901 165 864 170 847L289 755C310 744 358 743 377 755L505 848C507 870 488 898 472 900Z"  horiz-adv-x="704" vert-adv-y="1000"  />

      
      <glyph glyph-name="uni0110" unicode="&#x0110;" d="M356-22C555-22 696 140 696 387C696 601 556 719 384 719C299 719 217 704 124 673L113 403L8 401C-9 390-5 307 16 298L109 298L98 10C166-8 258-22 356-22ZM240 575C451 637 562 559 562 363C562 117 409 40 210 97L222 298L354 298C368 311 374 403 354 409L229 406Z"  horiz-adv-x="742" vert-adv-y="1000"  />

      
      <glyph glyph-name="uni0394" unicode="&#x0394;" d="M289 715L30 1L688 1L397 715C378 726 299 728 289 715ZM328 579L504 92L161 84Z"  horiz-adv-x="718" vert-adv-y="1000"  />

      
      <glyph glyph-name="uni2206" unicode="&#x2206;" d="M289 715L30 1L688 1L397 715C378 726 299 728 289 715ZM328 579L504 92L161 84Z"  horiz-adv-x="718" vert-adv-y="1000"  />

      
      <glyph glyph-name="uni45" unicode="&#x45;" d="M98 701L60-5L534 5C554 46 557 91 532 129L204 101L198 325L487 328C506 365 504 405 486 441L199 426L211 606L519 604C542 640 541 671 526 706Z"  horiz-adv-x="580" vert-adv-y="1000"  />

      
      <glyph glyph-name="unic9" unicode="&#xc9;" d="M98 701L60-5L534 5C554 46 557 91 532 129L204 101L198 325L487 328C506 365 504 405 486 441L199 426L211 606L519 604C542 640 541 671 526 706ZM402 929L226 819C224 793 243 751 261 749L454 812C468 855 437 924 402 929Z"  horiz-adv-x="580" vert-adv-y="1000"  />

      
      <glyph glyph-name="uni011A" unicode="&#x011A;" d="M98 701L60-5L534 5C554 46 557 91 532 129L204 101L198 325L487 328C506 365 504 405 486 441L199 426L211 606L519 604C542 640 541 671 526 706ZM332 846L201 902C179 902 160 865 165 848L284 756C305 745 353 744 372 756L500 849C502 871 483 899 467 901Z"  horiz-adv-x="580" vert-adv-y="1000"  />

      
      <glyph glyph-name="unica" unicode="&#xca;" d="M98 701L60-5L534 5C554 46 557 91 532 129L204 101L198 325L487 328C506 365 504 405 486 441L199 426L211 606L519 604C542 640 541 671 526 706ZM306 790L434 748C455 749 480 781 479 795L341 894C330 902 288 903 281 894L146 795C144 783 159 750 181 747Z"  horiz-adv-x="580" vert-adv-y="1000"  />

      
      <glyph glyph-name="unicb" unicode="&#xcb;" d="M428 746C459 758 491 785 508 820C490 853 464 880 430 897C397 884 367 854 351 823C369 789 394 762 428 746ZM201 748C232 760 264 787 281 822C263 855 237 882 203 899C170 886 140 856 124 825C142 791 167 764 201 748ZM98 701L60-5L534 5C554 46 557 91 532 129L204 101L198 325L487 328C506 365 504 405 486 441L199 426L211 606L519 604C542 640 541 671 526 706Z"  horiz-adv-x="580" vert-adv-y="1000"  />

      
      <glyph glyph-name="uni0116" unicode="&#x0116;" d="M335 748C366 760 398 787 415 822C397 855 371 882 337 899C304 886 274 856 258 825C276 791 301 764 335 748ZM98 701L60-5L534 5C554 46 557 91 532 129L204 101L198 325L487 328C506 365 504 405 486 441L199 426L211 606L519 604C542 640 541 671 526 706Z"  horiz-adv-x="580" vert-adv-y="1000"  />

      
      <glyph glyph-name="unic8" unicode="&#xc8;" d="M98 701L60-5L534 5C554 46 557 91 532 129L204 101L198 325L487 328C506 365 504 405 486 441L199 426L211 606L519 604C542 640 541 671 526 706ZM247 926C212 921 181 852 195 809L388 746C406 748 425 790 423 816Z"  horiz-adv-x="580" vert-adv-y="1000"  />

      
      <glyph glyph-name="uni0112" unicode="&#x0112;" d="M98 701L60-5L534 5C554 46 557 91 532 129L204 101L198 325L487 328C506 365 504 405 486 441L199 426L211 606L519 604C542 640 541 671 526 706ZM175 841C158 830 162 760 183 751L471 751C485 764 490 836 471 849Z"  horiz-adv-x="580" vert-adv-y="1000"  />

      
      <glyph glyph-name="uni0118" unicode="&#x0118;" d="M98 701L60-5L404 2C353-36 325-75 325-130C325-199 390-221 446-221C507-221 551-185 571-150C577-133 549-93 528-96C508-116 493-126 469-126C447-126 437-112 437-96C437-64 486-19 534 5C554 46 557 91 532 129L204 101L198 325L487 328C506 365 504 405 486 441L199 426L211 606L519 604C542 640 541 671 526 706Z"  horiz-adv-x="602" vert-adv-y="1000"  />

      
      <glyph glyph-name="unid0" unicode="&#xd0;" d="M361-22C560-22 701 140 701 387C701 601 561 719 389 719C304 719 222 704 129 673L118 389L11 388C3 352 2 317 16 283L114 285L103 10C171-8 263-22 361-22ZM245 575C456 637 567 559 567 363C567 117 414 40 215 97L227 287L362 290C377 324 376 359 367 393L233 391Z"  horiz-adv-x="747" vert-adv-y="1000"  />

      
      <glyph glyph-name="uni20AC" unicode="&#x20AC;" d="M61 482C42 456 33 410 37 384L111 386C108 363 106 336 107 312L48 311C31 285 23 239 31 212L121 214C160 72 280-21 483-21C508 9 509 67 502 90C399 86 305 132 259 218L405 222C423 244 437 284 429 318L230 314C229 338 229 364 233 389L444 394C465 407 490 446 481 482L271 482C320 555 411 607 529 591C553 614 576 674 563 707C343 718 192 638 133 482Z"  horiz-adv-x="586" vert-adv-y="1000"  />

      
      <glyph glyph-name="uni46" unicode="&#x46;" d="M97 701L60-8C91-26 166-29 190 0L197 325L465 328C488 365 483 407 464 441L198 426L211 606L519 604C540 639 542 672 525 706Z"  horiz-adv-x="562" vert-adv-y="1000"  />

      
      <glyph glyph-name="uni47" unicode="&#x47;" d="M409 708C241 708 42 591 42 331C42 138 164-17 365-17C433-17 510 1 593 41L605 313C567 334 483 323 455 300L477 98C455 93 432 91 411 91C279 91 178 189 178 348C178 485 291 582 407 582C453 582 499 568 541 534C591 551 606 580 614 625C567 680 490 708 409 708Z"  horiz-adv-x="654" vert-adv-y="1000"  />

      
      <glyph glyph-name="uni011E" unicode="&#x011E;" d="M274 893C263 905 192 900 180 880C192 777 284 748 371 748C461 748 556 779 565 880C556 894 488 903 473 893C465 866 437 845 374 845C310 845 280 864 274 893ZM409 708C241 708 42 591 42 331C42 138 164-17 365-17C433-17 510 1 593 41L605 313C567 334 483 323 455 300L477 98C455 93 432 91 411 91C279 91 178 189 178 348C178 485 291 582 407 582C453 582 499 568 541 534C591 551 606 580 614 625C567 680 490 708 409 708Z"  horiz-adv-x="654" vert-adv-y="1000"  />

      
      <glyph glyph-name="uni011C" unicode="&#x011C;" d="M409 708C241 708 42 591 42 331C42 138 164-17 365-17C433-17 510 1 593 41L605 313C567 334 483 323 455 300L477 98C455 93 432 91 411 91C279 91 178 189 178 348C178 485 291 582 407 582C453 582 499 568 541 534C591 551 606 580 614 625C567 680 490 708 409 708ZM381 789L509 747C530 748 555 780 554 794L416 893C405 901 363 902 356 893L221 794C219 782 234 749 256 746Z"  horiz-adv-x="654" vert-adv-y="1000"  />

      
      <glyph glyph-name="uni0122" unicode="&#x0122;" d="M409 708C241 708 42 591 42 331C42 138 164-17 365-17C433-17 510 1 593 41L605 313C567 334 483 323 455 300L477 98C455 93 432 91 411 91C279 91 178 189 178 348C178 485 291 582 407 582C453 582 499 568 541 534C591 551 606 580 614 625C567 680 490 708 409 708ZM343-265C390-230 421-183 421-131C421-79 385-51 350-51C316-51 286-76 286-107C286-136 296-163 331-173C322-198 311-212 294-229C295-242 325-269 343-265Z"  horiz-adv-x="654" vert-adv-y="1000"  />

      
      <glyph glyph-name="uni0120" unicode="&#x0120;" d="M373 748C404 760 436 787 453 822C435 855 409 882 375 899C342 886 312 856 296 825C314 791 339 764 373 748ZM409 708C241 708 42 591 42 331C42 138 164-17 365-17C433-17 510 1 593 41L605 313C567 334 483 323 455 300L477 98C455 93 432 91 411 91C279 91 178 189 178 348C178 485 291 582 407 582C453 582 499 568 541 534C591 551 606 580 614 625C567 680 490 708 409 708Z"  horiz-adv-x="654" vert-adv-y="1000"  />

      
      <glyph glyph-name="uni48" unicode="&#x48;" d="M254 706C204 716 159 715 111 703L60 5C108-3 150-3 198 15L205 330L555 326L510 0C556-10 602-14 648-2L690 700C641 708 595 709 548 697L558 439L223 436Z"  horiz-adv-x="755" vert-adv-y="1000"  />

      
      <glyph glyph-name="uni0126" unicode="&#x0126;" d="M261 706C211 716 166 715 118 703L110 600L8 599C-9 588-5 522 16 513L104 513L67 5C115-3 157-3 205 15L212 330L562 326L517 0C563-10 609-14 655-2L686 513L776 513C790 526 796 601 776 607L691 606L697 700C648 708 602 709 555 697L558 604L249 601ZM565 439L230 436L239 513L562 513Z"  horiz-adv-x="773" vert-adv-y="1000"  />

      
      <glyph glyph-name="uni0124" unicode="&#x0124;" d="M254 706C204 716 159 715 111 703L60 5C108-3 150-3 198 15L205 330L555 326L510 0C556-10 602-14 648-2L690 700C641 708 595 709 548 697L558 439L223 436ZM405 789L533 747C554 748 579 780 578 794L440 893C429 901 387 902 380 893L245 794C243 782 258 749 280 746Z"  horiz-adv-x="755" vert-adv-y="1000"  />

      
      <glyph glyph-name="uni49" unicode="&#x49;" d="M148 605L117 96L48 97C30 75 22 21 43 0L334 0C356 19 355 66 335 86C326 86 251 90 251 90L259 601L353 598C373 627 379 671 358 700L67 700C46 682 45 628 64 609Z"  horiz-adv-x="402" vert-adv-y="1000"  />

      
      <glyph glyph-name="unicd" unicode="&#xcd;" d="M148 605L117 96L48 97C30 75 22 21 43 0L334 0C356 19 355 66 335 86C326 86 251 90 251 90L259 601L353 598C373 627 379 671 358 700L67 700C46 682 45 628 64 609ZM299 929L123 819C121 793 140 751 158 749L351 812C365 855 334 924 299 929Z"  horiz-adv-x="402" vert-adv-y="1000"  />

      
      <glyph glyph-name="unice" unicode="&#xce;" d="M148 605L117 96L48 97C30 75 22 21 43 0L334 0C356 19 355 66 335 86C326 86 251 90 251 90L259 601L353 598C373 627 379 671 358 700L67 700C46 682 45 628 64 609ZM210 790L338 748C359 749 384 781 383 795L245 894C234 902 192 903 185 894L50 795C48 783 63 750 85 747Z"  horiz-adv-x="414" vert-adv-y="1000"  />

      
      <glyph glyph-name="unicf" unicode="&#xcf;" d="M140 605L109 96L40 97C22 77 18 20 35 0L326 0C349 18 345 67 327 86L243 90L251 601L345 598C366 627 369 672 350 700L59 700C40 685 39 625 56 609ZM325 746C356 758 388 785 405 820C387 853 361 880 327 897C294 884 264 854 248 823C266 789 291 762 325 746ZM98 748C129 760 161 787 178 822C160 855 134 882 100 899C67 886 37 856 21 825C39 791 64 764 98 748Z"  horiz-adv-x="397" vert-adv-y="1000"  />

      
      <glyph glyph-name="uni0130" unicode="&#x0130;" d="M208 748C239 760 271 787 288 822C270 855 244 882 210 899C177 886 147 856 131 825C149 791 174 764 208 748ZM148 605L117 96L48 97C30 75 22 21 43 0L334 0C356 19 355 66 335 86C326 86 251 90 251 90L259 601L353 598C373 627 379 671 358 700L67 700C46 682 45 628 64 609Z"  horiz-adv-x="402" vert-adv-y="1000"  />

      
      <glyph glyph-name="unicc" unicode="&#xcc;" d="M148 605L117 96L48 97C30 75 22 21 43 0L334 0C356 19 355 66 335 86C326 86 251 90 251 90L259 601L353 598C373 627 379 671 358 700L67 700C46 682 45 628 64 609ZM117 926C82 921 51 852 65 809L258 746C276 748 295 790 293 816Z"  horiz-adv-x="402" vert-adv-y="1000"  />

      
      <glyph glyph-name="uni012A" unicode="&#x012A;" d="M148 605L117 96L48 97C30 75 22 21 43 0L334 0C356 19 355 66 335 86C326 86 251 90 251 90L259 601L353 598C373 627 379 671 358 700L67 700C46 682 45 628 64 609ZM61 841C44 830 48 760 69 751L357 751C371 764 376 836 357 849Z"  horiz-adv-x="402" vert-adv-y="1000"  />

      
      <glyph glyph-name="uni012E" unicode="&#x012E;" d="M148 605L117 96L48 97C30 75 22 21 43 0L161 0C109-39 80-79 80-134C80-203 145-225 201-225C262-225 306-189 326-154C332-137 304-97 283-100C263-120 248-130 224-130C202-130 192-116 192-100C192-68 239-24 287 0L334 0C356 19 355 66 335 86C326 86 251 90 251 90L259 601L353 598C373 627 379 671 358 700L67 700C46 682 45 628 64 609Z"  horiz-adv-x="402" vert-adv-y="1000"  />

      
      <glyph glyph-name="uni4a" unicode="&#x4a;" d="M116 211C115 53 86-18-21-59C-29-90-24-140 6-153C149-126 223 0 235 174L270 691C238 718 145 708 119 684Z"  horiz-adv-x="335" vert-adv-y="1000"  />

      
      <glyph glyph-name="uni0134" unicode="&#x0134;" d="M116 211C115 53 86-18-21-59C-29-90-24-140 6-153C149-126 223 0 235 174L270 691C238 718 145 708 119 684ZM179 788L307 746C328 747 353 779 352 793L214 892C203 900 161 901 154 892L19 793C17 781 32 748 54 745Z"  horiz-adv-x="336" vert-adv-y="1000"  />

      
      <glyph glyph-name="uni4b" unicode="&#x4b;" d="M73 705L60-13C87-24 156-22 179-8L176 312L256 318L465-21C507-27 588-8 607 27L341 372L595 667C573 707 499 715 450 708L255 401L181 381L208 706C185 718 95 716 73 705Z"  horiz-adv-x="617" vert-adv-y="1000"  />

      
      <glyph glyph-name="uni0136" unicode="&#x0136;" d="M73 705L60-13C87-24 156-22 179-8L176 312L256 318L465-21C507-27 588-8 607 27L341 372L595 667C573 707 499 715 450 708L255 401L181 381L208 706C185 718 95 716 73 705ZM285-265C332-230 363-183 363-131C363-79 327-51 292-51C258-51 228-76 228-107C228-136 238-163 273-173C264-198 253-212 236-229C237-242 267-269 285-265Z"  horiz-adv-x="617" vert-adv-y="1000"  />

      
      <glyph glyph-name="uni4c" unicode="&#x4c;" d="M60-3L459 0C491 31 489 99 467 136L191 113L242 702C203 715 119 714 83 699Z"  horiz-adv-x="494" vert-adv-y="1000"  />

      
      <glyph glyph-name="uni0139" unicode="&#x0139;" d="M60-3L459 0C491 31 489 99 467 136L191 113L242 702C203 715 119 714 83 699ZM289 929L113 819C111 793 130 751 148 749L341 812C355 855 324 924 289 929Z"  horiz-adv-x="494" vert-adv-y="1000"  />

      
      <glyph glyph-name="uni013D" unicode="&#x013D;" d="M377 700C391 639 383 579 363 520C363 498 421 484 439 498C467 536 489 634 489 711C480 728 393 726 377 700ZM60-3L459 0C491 31 489 99 467 136L191 113L242 702C203 715 119 714 83 699Z"  horiz-adv-x="499" vert-adv-y="1000"  />

      
      <glyph glyph-name="uni013B" unicode="&#x013B;" d="M60-3L459 0C491 31 489 99 467 136L191 113L242 702C203 715 119 714 83 699ZM239-263C286-228 317-181 317-129C317-77 281-49 246-49C212-49 182-74 182-105C182-134 192-161 227-171C218-196 207-210 190-227C191-240 221-267 239-263Z"  horiz-adv-x="494" vert-adv-y="1000"  />

      
      <glyph glyph-name="uni013F" unicode="&#x013F;" d="M375 338C406 350 438 377 455 412C437 445 411 472 377 489C344 476 314 446 298 415C316 381 341 354 375 338ZM60-3L459 0C491 31 489 99 467 136L191 113L242 702C203 715 119 714 83 699Z"  horiz-adv-x="494" vert-adv-y="1000"  />

      
      <glyph glyph-name="uni0141" unicode="&#x0141;" d="M110-3L509 0C541 31 539 99 517 136L241 113L258 310L417 390C432 424 411 481 391 493L268 431L292 702C253 715 169 714 133 699L122 358L12 303C4 267 25 222 53 208L118 240Z"  horiz-adv-x="544" vert-adv-y="1000"  />

      
      <glyph glyph-name="uni4d" unicode="&#x4d;" d="M297 695C250 706 206 706 159 691L10 14C53-10 97-11 146 4L231 542L356 164C386 159 410 169 442 188L611 531L670-10C718-15 759-6 802 19L727 701C687 714 650 709 610 700L421 337Z"  horiz-adv-x="852" vert-adv-y="1000"  />

      
      <glyph glyph-name="uni4e" unicode="&#x4e;" d="M60 7C91-7 147-12 178 5L169 559L514-21C552-31 595-23 623 4L667 697C638 715 567 711 540 696L539 131L208 698C169 709 105 706 81 673Z"  horiz-adv-x="732" vert-adv-y="1000"  />

      
      <glyph glyph-name="uni0143" unicode="&#x0143;" d="M60 7C91-7 147-12 178 5L169 559L514-21C552-31 595-23 623 4L667 697C638 715 567 711 540 696L539 131L208 698C169 709 105 706 81 673ZM487 929L311 819C309 793 328 751 346 749L539 812C553 855 522 924 487 929Z"  horiz-adv-x="732" vert-adv-y="1000"  />

      
      <glyph glyph-name="uni0147" unicode="&#x0147;" d="M60 7C91-7 147-12 178 5L169 559L514-21C552-31 595-23 623 4L667 697C638 715 567 711 540 696L539 131L208 698C169 709 105 706 81 673ZM389 842L258 898C236 898 217 861 222 844L341 752C362 741 410 740 429 752L557 845C559 867 540 895 524 897Z"  horiz-adv-x="732" vert-adv-y="1000"  />

      
      <glyph glyph-name="uni0145" unicode="&#x0145;" d="M60 7C91-7 147-12 178 5L169 559L514-21C552-31 595-23 623 4L667 697C638 715 567 711 540 696L539 131L208 698C169 709 105 706 81 673ZM309-259C356-224 387-177 387-125C387-73 351-45 316-45C282-45 252-70 252-101C252-130 262-157 297-167C288-192 277-206 260-223C261-236 291-263 309-259Z"  horiz-adv-x="732" vert-adv-y="1000"  />

      
      <glyph glyph-name="unid1" unicode="&#xd1;" d="M252 751C269 766 291 779 322 779C373 779 395 748 450 748C500 748 551 782 555 837C550 865 512 887 500 884C484 862 465 853 441 853C403 853 369 886 318 886C265 886 226 854 212 828C208 808 222 752 252 751ZM60 7C91-7 147-12 178 5L169 559L514-21C552-31 595-23 623 4L667 697C638 715 567 711 540 696L539 131L208 698C169 709 105 706 81 673Z"  horiz-adv-x="732" vert-adv-y="1000"  />

      
      <glyph glyph-name="uni4f" unicode="&#x4f;" d="M369 719C164 718 42 532 42 347C42 74 161-20 351-20C539-20 680 154 680 372C680 584 556 720 369 719ZM171 349C171 503 243 608 362 608C520 608 553 508 553 376C553 217 489 95 351 95C195 95 171 220 171 349Z"  horiz-adv-x="726" vert-adv-y="1000"  />

      
      <glyph glyph-name="uni0152" unicode="&#x0152;" d="M574 701L577 632C534 692 466 719 369 719C164 718 42 532 42 347C42 74 161-20 351-20C432-20 497 3 544 51L536-5L1010 5C1030 46 1033 91 1008 129L680 101L674 325L963 328C982 365 980 405 962 441L675 426L687 606L995 604C1018 640 1017 671 1002 706ZM171 349C171 503 243 608 362 608C520 608 553 508 553 376C553 217 489 95 351 95C195 95 171 220 171 349Z"  horiz-adv-x="1056" vert-adv-y="1000"  />

      
      <glyph glyph-name="unid3" unicode="&#xd3;" d="M369 719C164 718 42 532 42 347C42 74 161-20 351-20C539-20 680 154 680 372C680 584 556 720 369 719ZM171 349C171 503 243 608 362 608C520 608 553 508 553 376C553 217 489 95 351 95C195 95 171 220 171 349ZM449 929L273 819C271 793 290 751 308 749L501 812C515 855 484 924 449 929Z"  horiz-adv-x="726" vert-adv-y="1000"  />

      
      <glyph glyph-name="unid4" unicode="&#xd4;" d="M369 719C164 718 42 532 42 347C42 74 161-20 351-20C539-20 680 154 680 372C680 584 556 720 369 719ZM171 349C171 503 243 608 362 608C520 608 553 508 553 376C553 217 489 95 351 95C195 95 171 220 171 349ZM371 790L499 748C520 749 545 781 544 795L406 894C395 902 353 903 346 894L211 795C209 783 224 750 246 747Z"  horiz-adv-x="726" vert-adv-y="1000"  />

      
      <glyph glyph-name="unid6" unicode="&#xd6;" d="M480 746C511 758 543 785 560 820C542 853 516 880 482 897C449 884 419 854 403 823C421 789 446 762 480 746ZM253 748C284 760 316 787 333 822C315 855 289 882 255 899C222 886 192 856 176 825C194 791 219 764 253 748ZM369 719C164 718 42 532 42 347C42 74 161-20 351-20C539-20 680 154 680 372C680 584 556 720 369 719ZM171 349C171 503 243 608 362 608C520 608 553 508 553 376C553 217 489 95 351 95C195 95 171 220 171 349Z"  horiz-adv-x="726" vert-adv-y="1000"  />

      
      <glyph glyph-name="unid2" unicode="&#xd2;" d="M369 719C164 718 42 532 42 347C42 74 161-20 351-20C539-20 680 154 680 372C680 584 556 720 369 719ZM171 349C171 503 243 608 362 608C520 608 553 508 553 376C553 217 489 95 351 95C195 95 171 220 171 349ZM307 925C272 920 241 851 255 808L448 745C466 747 485 789 483 815Z"  horiz-adv-x="726" vert-adv-y="1000"  />

      
      <glyph glyph-name="uni0150" unicode="&#x0150;" d="M369 719C164 718 42 532 42 347C42 74 161-20 351-20C539-20 680 154 680 372C680 584 556 720 369 719ZM171 349C171 503 243 608 362 608C520 608 553 508 553 376C553 217 489 95 351 95C195 95 171 220 171 349ZM349 927L173 817C171 791 190 749 208 747L401 810C415 853 384 922 349 927ZM614 927L438 817C436 791 455 749 473 747L666 810C680 853 649 922 614 927Z"  horiz-adv-x="726" vert-adv-y="1000"  />

      
      <glyph glyph-name="uni014C" unicode="&#x014C;" d="M369 719C164 718 42 532 42 347C42 74 161-20 351-20C539-20 680 154 680 372C680 584 556 720 369 719ZM171 349C171 503 243 608 362 608C520 608 553 508 553 376C553 217 489 95 351 95C195 95 171 220 171 349ZM222 841C205 830 209 760 230 751L518 751C532 764 537 836 518 849Z"  horiz-adv-x="726" vert-adv-y="1000"  />

      
      <glyph glyph-name="uni03A9" unicode="&#x03A9;" d="M65 113C39 87 51 3 69-14L368 3L366 98C295 163 209 247 209 405C209 545 316 643 461 643C607 643 689 553 689 409C689 264 595 156 545 100L547 5L838-10C860 12 858 91 833 124L667 97C723 174 805 293 805 436C805 583 695 737 465 737C246 737 91 573 91 416C91 249 167 165 223 96Z"  horiz-adv-x="925" vert-adv-y="1000"  />

      
      <glyph glyph-name="uni2126" unicode="&#x2126;" d="M65 113C39 87 51 3 69-14L368 3L366 98C295 163 209 247 209 405C209 545 316 643 461 643C607 643 689 553 689 409C689 264 595 156 545 100L547 5L838-10C860 12 858 91 833 124L667 97C723 174 805 293 805 436C805 583 695 737 465 737C246 737 91 573 91 416C91 249 167 165 223 96Z"  horiz-adv-x="925" vert-adv-y="1000"  />

      
      <glyph glyph-name="unid8" unicode="&#xd8;" d="M369 719C164 718 42 532 42 347C42 188 82 90 154 35L110-59C116-80 192-99 213-90L250-9C281-16 315-20 351-20C539-20 680 154 680 372C680 498 636 597 561 657L596 731C578 757 510 781 496 770L466 706C436 715 403 719 369 719ZM386 282L511 549C543 507 553 446 553 376C553 217 489 95 351 95C332 95 316 96 301 100ZM171 349C171 503 243 608 362 608C383 608 401 606 418 603L325 403L211 159C178 207 171 277 171 349Z"  horiz-adv-x="726" vert-adv-y="1000"  />

      
      <glyph glyph-name="unid5" unicode="&#xd5;" d="M255 751C272 766 294 779 325 779C376 779 398 748 453 748C503 748 554 782 558 837C553 865 515 887 503 884C487 862 468 853 444 853C406 853 372 886 321 886C268 886 229 854 215 828C211 808 225 752 255 751ZM369 719C164 718 42 532 42 347C42 74 161-20 351-20C539-20 680 154 680 372C680 584 556 720 369 719ZM171 349C171 503 243 608 362 608C520 608 553 508 553 376C553 217 489 95 351 95C195 95 171 220 171 349Z"  horiz-adv-x="726" vert-adv-y="1000"  />

      
      <glyph glyph-name="uni50" unicode="&#x50;" d="M60-3C108-24 149-26 194 2L192 248C229 234 266 227 299 227C431 227 580 321 580 480C580 631 457 716 289 716C226 716 158 708 87 689ZM200 596C234 606 266 610 296 610C400 610 460 553 460 478C460 388 387 334 290 334C263 334 232 338 201 348Z"  horiz-adv-x="595" vert-adv-y="1000"  />

      
      <glyph glyph-name="uni51" unicode="&#x51;" d="M369 719C164 718 42 532 42 359C42 72 160-20 350-20C360-20 370-19 380-18C446-104 613-210 697-221C738-226 802-166 801-130C739-116 533-37 489 20C605 86 679 214 679 366C679 584 556 720 369 719ZM170 343C170 503 242 608 361 608C512 608 552 507 552 374C552 216 488 86 350 86C194 86 170 221 170 343Z"  horiz-adv-x="727" vert-adv-y="1000"  />

      
      <glyph glyph-name="uni52" unicode="&#x52;" d="M60-4C99-27 159-25 195 3L193 261C237 252 275 247 317 250C339 178 432 20 480-20C529-35 598-3 616 35C572 67 447 219 424 273C505 305 580 375 580 496C580 650 463 716 289 716C226 716 157 708 87 689ZM200 596C235 606 266 610 296 610C400 610 460 554 460 474C460 396 393 347 302 347C272 347 237 351 201 362Z"  horiz-adv-x="636" vert-adv-y="1000"  />

      
      <glyph glyph-name="uni0154" unicode="&#x0154;" d="M60-4C99-27 159-25 195 3L193 261C237 252 275 247 317 250C339 178 432 20 480-20C529-35 598-3 616 35C572 67 447 219 424 273C505 305 580 375 580 496C580 650 463 716 289 716C226 716 157 708 87 689ZM200 596C235 606 266 610 296 610C400 610 460 554 460 474C460 396 393 347 302 347C272 347 237 351 201 362ZM422 929L246 819C244 793 263 751 281 749L474 812C488 855 457 924 422 929Z"  horiz-adv-x="636" vert-adv-y="1000"  />

      
      <glyph glyph-name="uni0158" unicode="&#x0158;" d="M60-4C99-27 159-25 195 3L193 261C237 252 275 247 317 250C339 178 432 20 480-20C529-35 598-3 616 35C572 67 447 219 424 273C505 305 580 375 580 496C580 650 463 716 289 716C226 716 157 708 87 689ZM200 596C235 606 266 610 296 610C400 610 460 554 460 474C460 396 393 347 302 347C272 347 237 351 201 362ZM316 846L185 902C163 902 144 865 149 848L268 756C289 745 337 744 356 756L484 849C486 871 467 899 451 901Z"  horiz-adv-x="636" vert-adv-y="1000"  />

      
      <glyph glyph-name="uni0156" unicode="&#x0156;" d="M60-4C99-27 159-25 195 3L193 261C237 252 275 247 317 250C339 178 432 20 480-20C529-35 598-3 616 35C572 67 447 219 424 273C505 305 580 375 580 496C580 650 463 716 289 716C226 716 157 708 87 689ZM200 596C235 606 266 610 296 610C400 610 460 554 460 474C460 396 393 347 302 347C272 347 237 351 201 362ZM297-258C344-223 375-176 375-124C375-72 339-44 304-44C270-44 240-69 240-100C240-129 250-156 285-166C276-191 265-205 248-222C249-235 279-262 297-258Z"  horiz-adv-x="636" vert-adv-y="1000"  />

      
      <glyph glyph-name="uni53" unicode="&#x53;" d="M261 724C124 724 51 651 51 546C51 437 117 393 190 350C256 312 365 276 365 187C365 141 329 93 251 93C186 93 140 122 92 178C58 151 33 83 43 36C90 7 156-14 252-14C408-14 491 95 491 189C491 321 400 368 286 432C219 469 177 495 177 542C177 594 217 618 279 618C341 618 395 587 437 553C474 569 495 636 489 677C431 709 359 724 261 724Z"  horiz-adv-x="546" vert-adv-y="1000"  />

      
      <glyph glyph-name="uni015A" unicode="&#x015A;" d="M261 724C124 724 51 651 51 546C51 437 117 393 190 350C256 312 365 276 365 187C365 141 329 93 251 93C186 93 140 122 92 178C58 151 33 83 43 36C90 7 156-14 252-14C408-14 491 95 491 189C491 321 400 368 286 432C219 469 177 495 177 542C177 594 217 618 279 618C341 618 395 587 437 553C474 569 495 636 489 677C431 709 359 724 261 724ZM359 929L183 819C181 793 200 751 218 749L411 812C425 855 394 924 359 929Z"  horiz-adv-x="546" vert-adv-y="1000"  />

      
      <glyph glyph-name="uni0160" unicode="&#x0160;" d="M261 724C124 724 51 651 51 546C51 437 117 393 190 350C256 312 365 276 365 187C365 141 329 93 251 93C186 93 140 122 92 178C58 151 33 83 43 36C90 7 156-14 252-14C408-14 491 95 491 189C491 321 400 368 286 432C219 469 177 495 177 542C177 594 217 618 279 618C341 618 395 587 437 553C474 569 495 636 489 677C431 709 359 724 261 724ZM276 846L145 902C123 902 104 865 109 848L228 756C249 745 297 744 316 756L444 849C446 871 427 899 411 901Z"  horiz-adv-x="546" vert-adv-y="1000"  />

      
      <glyph glyph-name="uni015E" unicode="&#x015E;" d="M197-74C247-80 288-95 288-122C288-151 250-147 185-124C169-121 146-174 158-195C279-252 383-215 383-128C383-76 356-49 299-41L315-7C430 17 491 108 491 189C491 321 400 368 286 432C219 469 177 495 177 542C177 594 217 618 279 618C341 618 395 587 437 553C474 569 495 636 489 677C431 709 359 724 261 724C124 724 51 651 51 546C51 437 117 393 190 350C256 312 365 276 365 187C365 141 329 93 251 93C186 93 140 122 92 178C58 151 33 83 43 36C85 10 142-9 221-13Z"  horiz-adv-x="546" vert-adv-y="1000"  />

      
      <glyph glyph-name="uni015C" unicode="&#x015C;" d="M261 724C124 724 51 651 51 546C51 437 117 393 190 350C256 312 365 276 365 187C365 141 329 93 251 93C186 93 140 122 92 178C58 151 33 83 43 36C90 7 156-14 252-14C408-14 491 95 491 189C491 321 400 368 286 432C219 469 177 495 177 542C177 594 217 618 279 618C341 618 395 587 437 553C474 569 495 636 489 677C431 709 359 724 261 724ZM282 803L410 761C431 762 456 794 455 808L317 907C306 915 264 916 257 907L122 808C120 796 135 763 157 760Z"  horiz-adv-x="546" vert-adv-y="1000"  />

      
      <glyph glyph-name="uni0218" unicode="&#x0218;" d="M261 724C124 724 51 651 51 546C51 437 117 393 190 350C256 312 365 276 365 187C365 141 329 93 251 93C186 93 140 122 92 178C58 151 33 83 43 36C90 7 156-14 252-14C408-14 491 95 491 189C491 321 400 368 286 432C219 469 177 495 177 542C177 594 217 618 279 618C341 618 395 587 437 553C474 569 495 636 489 677C431 709 359 724 261 724ZM250-263C297-228 328-181 328-129C328-77 292-49 257-49C223-49 193-74 193-105C193-134 203-161 238-171C229-196 218-210 201-227C202-240 232-267 250-263Z"  horiz-adv-x="546" vert-adv-y="1000"  />

      
      <glyph glyph-name="uni54" unicode="&#x54;" d="M14 705C-1 664-6 619 14 578L237 589L219 6C267-13 313-7 362 6L357 583L576 576C591 619 595 656 583 700Z"  horiz-adv-x="566" vert-adv-y="1000"  />

      
      <glyph glyph-name="uni0164" unicode="&#x0164;" d="M14 705C-1 664-6 619 14 578L237 589L219 6C267-13 313-7 362 6L357 583L576 576C591 619 595 656 583 700ZM306 846L175 902C153 902 134 865 139 848L258 756C279 745 327 744 346 756L474 849C476 871 457 899 441 901Z"  horiz-adv-x="566" vert-adv-y="1000"  />

      
      <glyph glyph-name="uni0162" unicode="&#x0162;" d="M14 705C-1 664-6 619 14 578L237 589L219 6C267-13 313-7 362 6L357 583L576 576C591 619 595 656 583 700ZM277-273C324-238 355-191 355-139C355-87 319-59 284-59C250-59 220-84 220-115C220-144 230-171 265-181C256-206 245-220 228-237C229-250 259-277 277-273Z"  horiz-adv-x="566" vert-adv-y="1000"  />

      
      <glyph glyph-name="unide" unicode="&#xde;" d="M60-3C116-22 143-26 194 2L188 148C226 134 263 127 296 127C428 127 577 213 577 380C577 532 454 616 286 616C255 616 223 614 190 610L198 700C171 717 88 712 79 691L73 320ZM197 496C231 506 262 510 292 510C396 510 456 449 456 370C456 284 383 234 286 234C259 234 229 238 198 248Z"  horiz-adv-x="597" vert-adv-y="1000"  />

      
      <glyph glyph-name="uni55" unicode="&#x55;" d="M71 255C69 60 201-16 334-16C491-16 611 72 623 266L649 692C628 709 551 711 520 700L503 309C497 175 470 79 350 79C222 79 189 158 194 306L206 698C170 713 108 709 76 689Z"  horiz-adv-x="709" vert-adv-y="1000"  />

      
      <glyph glyph-name="unida" unicode="&#xda;" d="M71 255C69 60 201-16 334-16C491-16 611 72 623 266L649 692C628 709 551 711 520 700L503 309C497 175 470 79 350 79C222 79 189 158 194 306L206 698C170 713 108 709 76 689ZM439 929L263 819C261 793 280 751 298 749L491 812C505 855 474 924 439 929Z"  horiz-adv-x="709" vert-adv-y="1000"  />

      
      <glyph glyph-name="uni016C" unicode="&#x016C;" d="M272 893C261 905 190 900 178 880C190 777 282 748 369 748C459 748 554 779 563 880C554 894 486 903 471 893C463 866 435 845 372 845C308 845 278 864 272 893ZM71 255C69 60 201-16 334-16C491-16 611 72 623 266L649 692C628 709 551 711 520 700L503 309C497 175 470 79 350 79C222 79 189 158 194 306L206 698C170 713 108 709 76 689Z"  horiz-adv-x="709" vert-adv-y="1000"  />

      
      <glyph glyph-name="unidb" unicode="&#xdb;" d="M71 255C69 60 201-16 334-16C491-16 611 72 623 266L649 692C628 709 551 711 520 700L503 309C497 175 470 79 350 79C222 79 189 158 194 306L206 698C170 713 108 709 76 689ZM359 790L487 748C508 749 533 781 532 795L394 894C383 902 341 903 334 894L199 795C197 783 212 750 234 747Z"  horiz-adv-x="709" vert-adv-y="1000"  />

      
      <glyph glyph-name="unidc" unicode="&#xdc;" d="M479 746C510 758 542 785 559 820C541 853 515 880 481 897C448 884 418 854 402 823C420 789 445 762 479 746ZM252 748C283 760 315 787 332 822C314 855 288 882 254 899C221 886 191 856 175 825C193 791 218 764 252 748ZM71 255C69 60 201-16 334-16C491-16 611 72 623 266L649 692C628 709 551 711 520 700L503 309C497 175 470 79 350 79C222 79 189 158 194 306L206 698C170 713 108 709 76 689Z"  horiz-adv-x="709" vert-adv-y="1000"  />

      
      <glyph glyph-name="unid9" unicode="&#xd9;" d="M71 255C69 60 201-16 334-16C491-16 611 72 623 266L649 692C628 709 551 711 520 700L503 309C497 175 470 79 350 79C222 79 189 158 194 306L206 698C170 713 108 709 76 689ZM264 922C229 917 198 848 212 805L405 742C423 744 442 786 440 812Z"  horiz-adv-x="709" vert-adv-y="1000"  />

      
      <glyph glyph-name="uni0170" unicode="&#x0170;" d="M71 255C69 60 201-16 334-16C491-16 611 72 623 266L649 692C628 709 551 711 520 700L503 309C497 175 470 79 350 79C222 79 189 158 194 306L206 698C170 713 108 709 76 689ZM339 927L163 817C161 791 180 749 198 747L391 810C405 853 374 922 339 927ZM604 927L428 817C426 791 445 749 463 747L656 810C670 853 639 922 604 927Z"  horiz-adv-x="720" vert-adv-y="1000"  />

      
      <glyph glyph-name="uni016A" unicode="&#x016A;" d="M71 255C69 60 201-16 334-16C491-16 611 72 623 266L649 692C628 709 551 711 520 700L503 309C497 175 470 79 350 79C222 79 189 158 194 306L206 698C170 713 108 709 76 689ZM211 841C194 830 198 760 219 751L507 751C521 764 526 836 507 849Z"  horiz-adv-x="709" vert-adv-y="1000"  />

      
      <glyph glyph-name="uni0172" unicode="&#x0172;" d="M71 255C69 77 178-1 298-14C258-48 235-85 235-134C235-203 300-225 356-225C417-225 461-189 481-154C487-137 459-97 438-100C418-120 403-130 379-130C357-130 347-116 347-100C347-68 396-23 444 1C544 35 614 120 623 266L649 692C628 709 551 711 520 700L503 309C497 175 470 79 350 79C222 79 189 158 194 306L206 698C170 713 108 709 76 689Z"  horiz-adv-x="709" vert-adv-y="1000"  />

      
      <glyph glyph-name="uni016E" unicode="&#x016E;" d="M226 800C226 740 284 695 360 695C437 695 495 740 495 800C495 859 437 903 360 903C286 903 226 859 226 800ZM326 800C326 821 343 834 360 834C379 834 394 819 394 800C394 780 379 765 360 765C343 765 326 779 326 800ZM71 255C69 60 201-16 334-16C491-16 611 72 623 266L649 692C628 709 551 711 520 700L503 309C497 175 470 79 350 79C222 79 189 158 194 306L206 698C170 713 108 709 76 689Z"  horiz-adv-x="709" vert-adv-y="1000"  />

      
      <glyph glyph-name="uni56" unicode="&#x56;" d="M227 7C260-13 347-15 377 6L647 681C622 707 549 712 506 706L302 130L146 708C107 710 35 700 15 672Z"  horiz-adv-x="632" vert-adv-y="1000"  />

      
      <glyph glyph-name="uni57" unicode="&#x57;" d="M184-3C217-21 292-27 327-4L467 487L588 0C622-22 714-26 745 1L942 667C922 700 848 725 801 715L680 118L539 629C492 640 423 621 400 588L273 98L157 711C120 725 39 690 25 656Z"  horiz-adv-x="937" vert-adv-y="1000"  />

      
      <glyph glyph-name="uni58" unicode="&#x58;" d="M213 326L10 16C26-2 69-20 107-28L287 258L447-25C491-17 547 2 580 34L368 353L570 658C548 689 508 710 469 713L301 425L158 710C110 701 53 663 32 634Z"  horiz-adv-x="595" vert-adv-y="1000"  />

      
      <glyph glyph-name="uni59" unicode="&#x59;" d="M239 267L223-3C256-22 334-18 368-3L365 262C365 262 614 661 615 660C597 689 532 730 482 717L309 344L138 717C90 724 25 680 15 649Z"  horiz-adv-x="595" vert-adv-y="1000"  />

      
      <glyph glyph-name="unidd" unicode="&#xdd;" d="M239 267L223-3C256-22 334-18 368-3L365 262C365 262 614 661 615 660C597 689 532 730 482 717L309 344L138 717C90 724 25 680 15 649ZM419 929L243 819C241 793 260 751 278 749L471 812C485 855 454 924 419 929Z"  horiz-adv-x="595" vert-adv-y="1000"  />

      
      <glyph glyph-name="uni0178" unicode="&#x0178;" d="M430 746C461 758 493 785 510 820C492 853 466 880 432 897C399 884 369 854 353 823C371 789 396 762 430 746ZM203 748C234 760 266 787 283 822C265 855 239 882 205 899C172 886 142 856 126 825C144 791 169 764 203 748ZM239 267L223-3C256-22 334-18 368-3L365 262C365 262 614 661 615 660C597 689 532 730 482 717L309 344L138 717C90 724 25 680 15 649Z"  horiz-adv-x="595" vert-adv-y="1000"  />

      
      <glyph glyph-name="uni5a" unicode="&#x5a;" d="M391 598L25 69L49 0L509 2C533 32 529 99 505 127L174 118L541 635L530 699L59 703C48 676 48 593 69 579Z"  horiz-adv-x="566" vert-adv-y="1000"  />

      
      <glyph glyph-name="uni0179" unicode="&#x0179;" d="M391 598L25 69L49 0L509 2C533 32 529 99 505 127L174 118L541 635L530 699L59 703C48 676 48 593 69 579ZM389 929L213 819C211 793 230 751 248 749L441 812C455 855 424 924 389 929Z"  horiz-adv-x="566" vert-adv-y="1000"  />

      
      <glyph glyph-name="uni017D" unicode="&#x017D;" d="M391 598L25 69L49 0L509 2C533 32 529 99 505 127L174 118L541 635L530 699L59 703C48 676 48 593 69 579ZM308 845L177 901C155 901 136 864 141 847L260 755C281 744 329 743 348 755L476 848C478 870 459 898 443 900Z"  horiz-adv-x="566" vert-adv-y="1000"  />

      
      <glyph glyph-name="uni017B" unicode="&#x017B;" d="M310 748C341 760 373 787 390 822C372 855 346 882 312 899C279 886 249 856 233 825C251 791 276 764 310 748ZM391 598L25 69L49 0L509 2C533 32 529 99 505 127L174 118L541 635L530 699L59 703C48 676 48 593 69 579Z"  horiz-adv-x="566" vert-adv-y="1000"  />

      
      <glyph glyph-name="uni61" unicode="&#x61;" d="M499 500C488 511 435 513 421 505L398 460C374 487 326 513 264 513C142 513 40 410 40 230C40 54 141-16 235-16C315-16 353 17 392 71C401 29 432-10 489-10C513-10 526-7 539-3C561 15 568 76 553 90C512 84 487 89 487 157C487 209 490 332 499 500ZM392 381L381 141C347 110 309 84 268 84C192 84 154 149 154 247C154 348 205 421 279 421C322 421 365 404 392 381Z"  horiz-adv-x="586" vert-adv-y="1000"  />

      
      <glyph glyph-name="unie1" unicode="&#xe1;" d="M499 500C488 511 435 513 421 505L398 460C374 487 326 513 264 513C142 513 40 410 40 230C40 54 141-16 235-16C315-16 353 17 392 71C401 29 432-10 489-10C513-10 526-7 539-3C561 15 568 76 553 90C512 84 487 89 487 157C487 209 490 332 499 500ZM392 381L381 141C347 110 309 84 268 84C192 84 154 149 154 247C154 348 205 421 279 421C322 421 365 404 392 381ZM287 726L238 587C243 577 285 566 301 573L416 719C392 738 296 741 287 726Z"  horiz-adv-x="586" vert-adv-y="1000"  />

      
      <glyph glyph-name="uni0103" unicode="&#x0103;" d="M470 500C459 511 406 513 392 505L369 460C345 487 297 513 235 513C113 513 11 410 11 230C11 54 112-16 206-16C286-16 324 17 363 71C372 29 403-10 460-10C484-10 497-7 510-3C532 15 539 76 524 90C483 84 458 89 458 157C458 209 461 332 470 500ZM363 381L352 141C318 110 280 84 239 84C163 84 125 149 125 247C125 348 176 421 250 421C293 421 336 404 363 381ZM170 719C160 731 108 726 97 706C109 596 189 558 276 558C366 558 443 596 462 706C452 720 404 729 389 719C375 671 343 645 280 645C216 645 181 671 170 719Z"  horiz-adv-x="557" vert-adv-y="1000"  />

      
      <glyph glyph-name="unie2" unicode="&#xe2;" d="M499 500C488 511 435 513 421 505L398 460C374 487 326 513 264 513C142 513 40 410 40 230C40 54 141-16 235-16C315-16 353 17 392 71C401 29 432-10 489-10C513-10 526-7 539-3C561 15 568 76 553 90C512 84 487 89 487 157C487 209 490 332 499 500ZM392 381L381 141C347 110 309 84 268 84C192 84 154 149 154 247C154 348 205 421 279 421C322 421 365 404 392 381ZM295 637L385 554C418 546 448 559 455 576L324 736C309 742 290 745 275 736L147 575C148 564 184 545 205 553Z"  horiz-adv-x="586" vert-adv-y="1000"  />

      
      <glyph glyph-name="unib4" unicode="&#xb4;" d="M127 726L78 587C83 577 125 566 141 573L256 719C232 738 136 741 127 726Z"  horiz-adv-x="262" vert-adv-y="1000"  />

      
      <glyph glyph-name="unie4" unicode="&#xe4;" d="M499 500C488 511 435 513 421 505L398 460C374 487 326 513 264 513C142 513 40 410 40 230C40 54 141-16 235-16C315-16 353 17 392 71C401 29 432-10 489-10C513-10 526-7 539-3C561 15 568 76 553 90C512 84 487 89 487 157C487 209 490 332 499 500ZM392 381L381 141C347 110 309 84 268 84C192 84 154 149 154 247C154 348 205 421 279 421C322 421 365 404 392 381ZM407 582C438 594 470 621 487 656C469 689 443 716 409 733C376 720 346 690 330 659C348 625 373 598 407 582ZM180 584C211 596 243 623 260 658C242 691 216 718 182 735C149 722 119 692 103 661C121 627 146 600 180 584Z"  horiz-adv-x="586" vert-adv-y="1000"  />

      
      <glyph glyph-name="unie6" unicode="&#xe6;" d="M479 226C623 195 813 204 813 368C813 427 777 512 611 512C547 512 494 494 453 462C412 494 351 513 275 513C142 513 40 410 40 210C40 54 141-16 235-16C299-16 360 27 393 96C428 31 489-4 570-10C660-17 735 11 791 58C806 103 789 131 763 150C720 113 672 89 611 89C505 89 479 148 479 226ZM360 247C360 219 362 194 366 171C336 114 300 84 250 84C192 84 154 149 154 238C154 348 219 421 288 421C317 421 359 416 395 395C372 354 360 303 360 247ZM476 292C481 349 502 415 617 415C667 415 700 395 700 351C700 265 524 282 476 292Z"  horiz-adv-x="844" vert-adv-y="1000"  />

      
      <glyph glyph-name="uni0410" unicode="&#x0410;" d="M413 695C365 709 321 714 275 697L-5 30C24-3 66-17 118-11L190 188L458 197L513-8C573-5 622 11 652 46ZM222 288L340 585L432 294Z"  horiz-adv-x="667" vert-adv-y="1000"  />

      
      <glyph glyph-name="uni0411" unicode="&#x0411;" d="M77 708L60 11C145-12 221-23 285-23C475-23 570 72 570 229C570 332 508 431 324 431C284 431 238 427 185 417L199 608L533 592C546 621 547 665 538 697ZM176 329C217 339 254 343 285 343C396 343 450 290 450 215C450 117 379 66 285 66C247 66 207 73 168 89Z"  horiz-adv-x="600" vert-adv-y="1000"  />

      
      <glyph glyph-name="uni0412" unicode="&#x0412;" d="M60 37C128 2 205-14 278-14C442-14 593 65 593 210C593 295 526 357 412 374C498 411 554 460 554 542C554 648 452 714 299 714C239 714 172 704 99 683ZM203 605C239 616 270 620 296 620C381 620 423 575 423 524C423 441 343 415 253 415C238 415 219 416 197 419ZM195 326C214 328 235 328 257 328C367 328 459 296 459 215C459 132 374 89 288 89C250 89 211 98 175 119Z"  horiz-adv-x="623" vert-adv-y="1000"  />

      
      <glyph glyph-name="uni0413" unicode="&#x0413;" d="M202 7L192 590L475 585C494 620 497 679 487 714L73 704L60-8C109-18 160-16 202 7Z"  horiz-adv-x="481" vert-adv-y="1000"  />

      
      <glyph glyph-name="uni0414" unicode="&#x0414;" d="M-8-190C28-196 68-193 103-181L99-4C276 21 360 17 558-6L556-186C578-199 633-198 654-195L681 92C649 96 616 100 582 103L617 693C503 711 332 719 208 704C198 397 153 205 69 105C42 102 15 98-10 94ZM304 596C355 608 438 607 490 598L457 112C369 117 278 119 191 114C259 226 291 409 304 596Z"  horiz-adv-x="716" vert-adv-y="1000"  />

      
      <glyph glyph-name="uni0415" unicode="&#x0415;" d="M98 701L60-5L534 5C554 46 557 91 532 129L204 101L198 325L487 328C506 365 504 405 486 441L199 426L211 606L519 604C542 640 541 671 526 706Z"  horiz-adv-x="580" vert-adv-y="1000"  />

      
      <glyph glyph-name="uni0401" unicode="&#x0401;" d="M428 746C459 758 491 785 508 820C490 853 464 880 430 897C397 884 367 854 351 823C369 789 394 762 428 746ZM201 748C232 760 264 787 281 822C263 855 237 882 203 899C170 886 140 856 124 825C142 791 167 764 201 748ZM98 701L60-5L534 5C554 46 557 91 532 129L204 101L198 325L487 328C506 365 504 405 486 441L199 426L211 606L519 604C542 640 541 671 526 706Z"  horiz-adv-x="580" vert-adv-y="1000"  />

      
      <glyph glyph-name="uni0416" unicode="&#x0416;" d="M541 680C501 693 456 698 412 690L395 403L314 417L200 699C149 709 108 699 59 681L236 377L-10 32C27 0 75-15 123-17L321 326L394 326L384-13C426-26 465-23 506-9L498 319L565 328L744-9C803-9 842 6 880 32L642 394L873 663C832 689 794 695 747 691L558 413L478 410Z"  horiz-adv-x="890" vert-adv-y="1000"  />

      
      <glyph glyph-name="uni0417" unicode="&#x0417;" d="M57 561C128 592 199 609 254 609C330 609 377 579 377 515C377 407 275 405 187 403L157 402C137 371 140 347 147 313C242 318 374 316 374 191C374 122 312 82 229 82C170 82 101 100 31 141C15 116 7 69 12 36C91-4 170-22 240-22C389-22 502 61 502 183C502 262 467 344 382 370L381 375C451 388 503 460 503 521C503 663 382 715 254 715C170 715 86 693 34 659C26 621 33 589 57 561Z"  horiz-adv-x="543" vert-adv-y="1000"  />

      
      <glyph glyph-name="uni0418" unicode="&#x0418;" d="M206 681C162 694 123 695 77 686L60 24C87-9 140-17 185-9L563 539L515 2C562-9 607-5 654 12L656 687C616 703 574 703 533 688L177 166Z"  horiz-adv-x="721" vert-adv-y="1000"  />

      
      <glyph glyph-name="uni0419" unicode="&#x0419;" d="M161 888C133 744 262 709 365 709C480 709 629 750 596 890C578 902 511 902 493 886C505 831 476 794 370 794C284 794 245 829 258 885C247 899 172 900 161 888ZM206 681C162 694 123 695 77 686L60 24C87-9 140-17 185-9L563 539L515 2C562-9 607-5 654 12L656 687C616 703 574 703 533 688L177 166Z"  horiz-adv-x="721" vert-adv-y="1000"  />

      
      <glyph glyph-name="uni041A" unicode="&#x041A;" d="M73 705L60-13C87-24 156-22 179-8L176 312L256 318L465-21C507-27 588-8 607 27L341 372L595 667C573 707 499 715 450 708L255 401L181 381L208 706C185 718 95 716 73 705Z"  horiz-adv-x="617" vert-adv-y="1000"  />

      
      <glyph glyph-name="uni041B" unicode="&#x041B;" d="M604 700C490 718 329 726 208 711C178 310 144 134 77 134C61 134 44 138 33 147C9 120-15 62-9 14C33-20 79-19 119-7C280 40 284 342 314 608C363 621 418 614 468 603L428-7C475-22 523-20 569-1Z"  horiz-adv-x="669" vert-adv-y="1000"  />

      
      <glyph glyph-name="uni041C" unicode="&#x041C;" d="M297 695C250 706 206 706 159 691L10 14C53-10 97-11 146 4L231 542L356 164C386 159 410 169 442 188L611 531L670-10C718-15 759-6 802 19L727 701C687 714 650 709 610 700L421 337Z"  horiz-adv-x="852" vert-adv-y="1000"  />

      
      <glyph glyph-name="uni041D" unicode="&#x041D;" d="M254 706C204 716 159 715 111 703L60 5C108-3 150-3 198 15L205 330L555 326L510 0C556-10 602-14 648-2L690 700C641 708 595 709 548 697L558 439L223 436Z"  horiz-adv-x="755" vert-adv-y="1000"  />

      
      <glyph glyph-name="uni041E" unicode="&#x041E;" d="M369 719C164 718 42 532 42 347C42 74 161-20 351-20C539-20 680 154 680 372C680 584 556 720 369 719ZM171 349C171 503 243 608 362 608C520 608 553 508 553 376C553 217 489 95 351 95C195 95 171 220 171 349Z"  horiz-adv-x="728" vert-adv-y="1000"  />

      
      <glyph glyph-name="uni041F" unicode="&#x041F;" d="M662 701L85 711L60-10C108-22 152-19 200-9L216 592L531 588L515-11C562-25 608-21 655-9Z"  horiz-adv-x="727" vert-adv-y="1000"  />

      
      <glyph glyph-name="uni0420" unicode="&#x0420;" d="M60-3C108-24 149-26 194 2L192 248C229 234 266 227 299 227C431 227 580 321 580 480C580 631 457 716 289 716C226 716 158 708 87 689ZM200 596C234 606 266 610 296 610C400 610 460 553 460 478C460 388 387 334 290 334C263 334 232 338 201 348Z"  horiz-adv-x="595" vert-adv-y="1000"  />

      
      <glyph glyph-name="uni0421" unicode="&#x0421;" d="M409 705C241 705 42 590 42 330C42 133 149-20 356-20C418-20 498-8 565 22C580 60 567 100 542 126C495 105 448 95 405 95C277 95 177 179 177 339C177 484 288 580 412 580C459 580 506 566 548 532C587 538 609 576 617 621C570 677 492 705 409 705Z"  horiz-adv-x="632" vert-adv-y="1000"  />

      
      <glyph glyph-name="uni0422" unicode="&#x0422;" d="M14 705C-1 664-6 619 14 578L237 589L219 6C267-13 313-7 362 6L357 583L576 576C591 619 595 656 583 700Z"  horiz-adv-x="566" vert-adv-y="1000"  />

      
      <glyph glyph-name="uni0423" unicode="&#x0423;" d="M178 711C118 714 64 707 15 682L301 137C287 110 270 99 251 99C221 99 191 121 175 151C137 128 109 104 101 49C136 8 190-16 241-16C325-16 379 78 419 165L655 685C612 714 560 724 509 712L366 274Z"  horiz-adv-x="640" vert-adv-y="1000"  />

      
      <glyph glyph-name="uni0424" unicode="&#x0424;" d="M527 715C480 732 433 739 384 731L380 629C116 638 35 491 35 371C35 208 84 83 286 83C307 83 334 85 365 90L361-26C404-40 470-38 507-19L508 84C537 80 563 78 583 78C779 78 861 209 861 367C861 521 781 633 610 633C584 633 553 630 519 624ZM515 517C548 527 577 530 601 530C700 530 732 463 732 378C732 268 687 183 557 183C545 183 523 185 501 188ZM375 181C253 171 171 213 171 358C171 468 225 535 335 535C346 535 362 534 382 531Z"  horiz-adv-x="906" vert-adv-y="1000"  />

      
      <glyph glyph-name="uni0425" unicode="&#x0425;" d="M213 326L10 16C26-2 69-20 107-28L287 258L447-25C491-17 547 2 580 34L368 353L570 658C548 689 508 710 469 713L301 425L158 710C110 701 53 663 32 634Z"  horiz-adv-x="595" vert-adv-y="1000"  />

      
      <glyph glyph-name="uni0426" unicode="&#x0426;" d="M67-14L567-2L560-181C590-199 655-203 690-196L688 109L609 114L643 700C596 705 534 704 494 691L473 104L190 114L207 701C162 707 110 708 65 701Z"  horiz-adv-x="720" vert-adv-y="1000"  />

      
      <glyph glyph-name="uni0427" unicode="&#x0427;" d="M31 457C28 387 37 328 70 297C107 262 164 248 226 248C293 248 357 260 404 283L385-12C410-30 491-33 518-19L538 701C498 708 453 702 415 691C414 649 410 377 410 377C358 361 308 349 264 349C227 349 192 360 171 387C156 407 149 444 150 481C153 556 179 645 192 679C159 702 99 708 59 696C42 578 33 514 31 457Z"  horiz-adv-x="603" vert-adv-y="1000"  />

      
      <glyph glyph-name="uni0428" unicode="&#x0428;" d="M60-7C123-6 884 2 884 2L931 698C888 707 842 700 800 689C799 645 778 131 778 130L539 111L570 689C522 701 470 701 423 689C421 631 406 102 406 102L188 122L214 701C173 712 113 712 70 700Z"  horiz-adv-x="996" vert-adv-y="1000"  />

      
      <glyph glyph-name="uni0429" unicode="&#x0429;" d="M839-180C866-200 938-206 971-194L969 109L891 109L931 698C890 706 841 700 801 689C799 645 778 131 778 130L538 111L571 689C523 701 470 701 424 689C422 631 406 102 406 102L188 122L214 701C172 712 112 712 70 700L60-7L848 1Z"  horiz-adv-x="1006" vert-adv-y="1000"  />

      
      <glyph glyph-name="uni042A" unicode="&#x042A;" d="M335 707L18 703C-4 672-4 611 14 573L208 592L175 31C247-7 325-22 396-22C556-22 686 72 686 255C686 391 588 475 458 475C418 475 371 466 320 444ZM319 348C358 362 393 368 422 368C515 368 555 308 555 240C555 155 477 98 394 98C366 98 336 103 305 118Z"  horiz-adv-x="716" vert-adv-y="1000"  />

      
      <glyph glyph-name="uni042B" unicode="&#x042B;" d="M807 683C757 701 709 707 659 694L626-4C667-21 704-19 744-4ZM222 701C168 715 123 711 69 701L60 30C133-5 208-22 275-22C428-22 549 71 549 254C549 392 449 469 325 469C289 469 248 461 204 445ZM201 348C232 358 262 362 286 362C374 362 421 310 421 241C421 154 353 98 273 98C247 98 218 103 188 118Z"  horiz-adv-x="872" vert-adv-y="1000"  />

      
      <glyph glyph-name="uni042C" unicode="&#x042C;" d="M222 701C168 715 123 711 69 701L60 30C133-5 210-22 280-22C440-22 570 70 570 259C570 388 472 475 342 475C303 475 256 466 204 444ZM203 348C243 362 277 368 307 368C399 368 439 306 439 238C439 153 362 98 278 98C250 98 220 103 190 118Z"  horiz-adv-x="600" vert-adv-y="1000"  />

      
      <glyph glyph-name="uni042D" unicode="&#x042D;" d="M146 420C129 387 128 344 142 309L476 314C460 191 362 100 204 100C153 100 98 109 37 128C13 98 12 59 20 22C93-1 160-11 225-11C447-11 603 130 603 364C603 592 502 712 294 712C206 712 127 695 43 656C37 617 42 580 71 541C157 587 227 604 287 604C394 604 472 525 474 409Z"  horiz-adv-x="653" vert-adv-y="1000"  />

      
      <glyph glyph-name="uni042E" unicode="&#x042E;" d="M196 7C196 23 193 317 193 317L304 319C307 101 415-11 578-11C759-11 890 113 890 363C890 607 792 713 626 713C465 713 358 603 323 412L198 400L225 691C184 713 131 708 88 704L60 3C103-13 159-17 196 7ZM435 337C435 489 502 603 621 603C741 603 774 510 774 372C774 215 710 94 581 94C460 94 435 208 435 337Z"  horiz-adv-x="940" vert-adv-y="1000"  />

      
      <glyph glyph-name="uni042F" unicode="&#x042F;" d="M572 687C519 701 462 708 404 708C238 708 75 643 75 491C75 365 150 314 241 294C173 203 92 116 0 33C23-7 76-17 125-17C211 65 287 167 354 282L441 285L426-8C463-13 504-9 540 0ZM446 368C419 362 393 360 371 360C265 360 202 412 202 491C202 562 265 616 383 616C403 616 428 615 457 609Z"  horiz-adv-x="637" vert-adv-y="1000"  />

      
      <glyph glyph-name="uni0490" unicode="&#x0490;" d="M202 7L192 590L475 585C498 640 499 749 485 803C466 817 399 809 384 794L374 711L73 704L60-8C109-18 160-16 202 7Z"  horiz-adv-x="483" vert-adv-y="1000"  />

      
      <glyph glyph-name="uni0402" unicode="&#x0402;" d="M8 705C-7 664-13 619 9 578L191 589L176 6C224-13 270-7 319 6L315 285C357 316 397 325 440 325C512 325 544 300 544 223C544 128 494 64 420 15C423-16 468-65 501-57C591 2 661 79 661 243C661 331 634 432 486 432C422 432 359 407 314 378L311 583L550 576C565 619 569 656 557 700Z"  horiz-adv-x="698" vert-adv-y="1000"  />

      
      <glyph glyph-name="uni0403" unicode="&#x0403;" d="M202 7L192 590L475 585C494 620 497 679 487 714L73 704L60-8C109-18 160-16 202 7ZM339 927L163 817C161 791 180 749 198 747L391 810C405 853 374 922 339 927Z"  horiz-adv-x="469" vert-adv-y="1000"  />

      
      <glyph glyph-name="uni0404" unicode="&#x0404;" d="M409 705C241 705 42 590 42 343C42 131 149-20 356-20C418-20 488-6 565 22C580 61 571 91 542 126C495 105 448 95 405 95C295 95 206 159 183 287L455 279C475 299 484 386 463 407L183 407C208 512 309 580 412 580C459 580 506 566 548 532C598 549 609 576 617 621C570 677 492 705 409 705Z"  horiz-adv-x="637" vert-adv-y="1000"  />

      
      <glyph glyph-name="uni0405" unicode="&#x0405;" d="M261 724C124 724 51 651 51 546C51 437 117 393 190 350C256 312 365 276 365 187C365 141 329 93 251 93C186 93 140 122 92 178C58 151 33 83 43 36C90 7 156-14 252-14C408-14 491 95 491 189C491 321 400 368 286 432C219 469 177 495 177 542C177 594 217 618 279 618C341 618 395 587 437 553C474 569 495 636 489 677C431 709 359 724 261 724Z"  horiz-adv-x="546" vert-adv-y="1000"  />

      
      <glyph glyph-name="uni0406" unicode="&#x0406;" d="M140 605L109 96L40 97C22 77 18 20 35 0L326 0C349 18 345 67 327 86L243 90L251 601L345 598C366 627 369 672 350 700L59 700C40 685 39 625 56 609Z"  horiz-adv-x="386" vert-adv-y="1000"  />

      
      <glyph glyph-name="uni0407" unicode="&#x0407;" d="M304 746C335 758 367 785 384 820C366 853 340 880 306 897C273 884 243 854 227 823C245 789 270 762 304 746ZM97 748C128 760 160 787 177 822C159 855 133 882 99 899C66 886 36 856 20 825C38 791 63 764 97 748ZM140 605L109 96L40 97C22 77 18 20 35 0L326 0C349 18 345 67 327 86L243 90L251 601L345 598C366 627 369 672 350 700L59 700C40 685 39 625 56 609Z"  horiz-adv-x="386" vert-adv-y="1000"  />

      
      <glyph glyph-name="uni0408" unicode="&#x0408;" d="M116 211C115 53 86-18-21-59C-29-90-24-140 6-153C149-126 223 0 235 174L270 691C238 718 145 708 119 684Z"  horiz-adv-x="335" vert-adv-y="1000"  />

      
      <glyph glyph-name="uni0409" unicode="&#x0409;" d="M421-7C496-20 560-22 636-22C784-22 916 67 916 252C916 406 815 475 698 475C664 475 630 470 589 458L603 700C489 718 326 727 204 711C174 310 140 134 73 134C52 134 40 138 29 147C6 120-8 68-10 18C9-4 62-16 111-2C275 44 280 342 311 608C362 623 416 611 467 603ZM663 368C755 368 785 316 785 248C785 140 717 89 633 89C609 89 589 91 568 99L583 353C615 363 637 368 663 368Z"  horiz-adv-x="946" vert-adv-y="1000"  />

      
      <glyph glyph-name="uni040A" unicode="&#x040A;" d="M460 0C527-16 598-22 674-22C822-22 954 68 954 252C954 388 861 472 743 472C704 472 666 467 624 460L639 700C590 708 544 709 497 697L505 446L223 436L253 706C203 716 158 715 110 703L60 5C106-3 151-2 197 15L204 330L505 342L459 0ZM701 366C793 366 823 306 823 238C823 145 756 89 672 89C647 89 626 92 603 100L618 360C646 363 673 366 701 366Z"  horiz-adv-x="984" vert-adv-y="1000"  />

      
      <glyph glyph-name="uni040B" unicode="&#x040B;" d="M1 705C-12 684-13 601 2 581L191 593L175-5C216-12 263-6 303 5L303 299C354 315 405 327 449 327C538 327 562 273 562 195C562 118 537 41 524 7C557-16 617-22 657-10C674 108 682 162 682 219C682 361 628 428 486 428C419 428 356 416 309 393L313 587L519 580C530 597 542 675 525 700Z"  horiz-adv-x="718" vert-adv-y="1000"  />

      
      <glyph glyph-name="uni040C" unicode="&#x040C;" d="M73 705L60-13C87-24 156-22 179-8L176 312L256 318L465-21C507-27 588-8 607 27L341 372L595 667C573 707 499 715 450 708L255 401L181 381L208 706C185 718 95 716 73 705ZM407 926L231 816C229 790 248 748 266 746L459 809C473 852 442 921 407 926Z"  horiz-adv-x="594" vert-adv-y="1000"  />

      
      <glyph glyph-name="uni040E" unicode="&#x040E;" d="M161 888C133 744 262 709 365 709C480 709 629 750 596 890C578 902 511 902 493 886C505 831 476 794 370 794C284 794 245 829 258 885C247 899 172 900 161 888ZM178 711C118 714 64 707 15 682L301 137C287 110 270 99 251 99C221 99 191 121 175 151C137 128 109 104 101 49C136 8 190-16 241-16C325-16 379 78 419 165L655 685C612 714 560 724 509 712L366 274Z"  horiz-adv-x="602" vert-adv-y="1000"  />

      
      <glyph glyph-name="uni0430" unicode="&#x0430;" d="M499 500C488 511 435 513 421 505L398 460C374 487 326 513 264 513C142 513 40 410 40 230C40 54 141-16 235-16C315-16 353 17 392 71C401 29 432-10 489-10C513-10 526-7 539-3C561 15 568 76 553 90C512 84 487 89 487 157C487 209 490 332 499 500ZM392 381L381 141C347 110 309 84 268 84C192 84 154 149 154 247C154 348 205 421 279 421C322 421 365 404 392 381Z"  horiz-adv-x="586" vert-adv-y="1000"  />

      
      <glyph glyph-name="uni0431" unicode="&#x0431;" d="M449 720C383 639 50 782 50 277C50 76 127-16 307-16C449-16 557 85 557 249C557 371 498 469 344 469C270 469 198 433 154 371C190 675 453 468 501 666C496 692 469 714 449 720ZM331 368C384 368 438 332 438 244C438 157 380 83 304 83C210 83 159 142 160 283C211 325 254 368 331 368Z"  horiz-adv-x="597" vert-adv-y="1000"  />

      
      <glyph glyph-name="uni0432" unicode="&#x0432;" d="M45 212C45 34 149-10 269-10C382-10 489 50 489 160C489 214 456 268 387 272C430 296 468 344 468 399C468 482 396 518 303 518C124 518 45 387 45 212ZM284 435C334 435 354 414 354 382C354 323 287 307 162 288C171 373 212 435 284 435ZM164 214C213 222 270 238 310 243C342 231 376 205 376 157C376 97 306 80 273 80C194 80 164 127 164 214Z"  horiz-adv-x="534" vert-adv-y="1000"  />

      
      <glyph glyph-name="uni0433" unicode="&#x0433;" d="M89 364C127 400 176 419 214 419C244 419 262 410 262 386C262 295 57 242 57 106C57 25 126-17 219-17C290-17 360 11 422 85C414 122 374 162 355 164C318 111 278 82 234 82C200 82 182 96 182 125C182 201 376 267 376 394C376 462 331 514 231 514C164 514 83 490 36 446C29 420 63 379 89 364Z"  horiz-adv-x="452" vert-adv-y="1000"  />

      
      <glyph glyph-name="uni0434" unicode="&#x0434;" d="M288 467C135 467 40 363 40 220C40 107 121-18 275-18C428-18 544 159 544 418C544 597 466 718 297 718C210 718 121 680 83 626C85 597 121 556 168 545C192 586 238 619 288 619C370 619 422 538 430 421C394 453 338 467 288 467ZM270 83C210 83 154 131 154 228C154 341 234 371 300 371C346 371 394 356 429 330C418 178 364 83 270 83Z"  horiz-adv-x="579" vert-adv-y="1000"  />

      
      <glyph glyph-name="uni0435" unicode="&#x0435;" d="M159 226C303 195 515 204 515 368C515 427 477 512 311 512C155 512 40 405 40 247C40 86 139 0 270-10C360-17 437 11 493 58C508 103 491 131 465 150C422 113 372 89 311 89C205 89 159 148 159 226ZM156 292C161 349 202 415 317 415C367 415 402 395 402 351C402 265 204 282 156 292Z"  horiz-adv-x="555" vert-adv-y="1000"  />

      
      <glyph glyph-name="uni0451" unicode="&#x0451;" d="M418 582C449 594 481 621 498 656C480 689 454 716 420 733C387 720 357 690 341 659C359 625 384 598 418 582ZM191 584C222 596 254 623 271 658C253 691 227 718 193 735C160 722 130 692 114 661C132 627 157 600 191 584ZM159 226C303 195 515 204 515 368C515 427 477 512 311 512C155 512 40 405 40 247C40 86 139 0 270-10C360-17 437 11 493 58C508 103 491 131 465 150C422 113 372 89 311 89C205 89 159 148 159 226ZM156 292C161 349 202 415 317 415C367 415 402 395 402 351C402 265 204 282 156 292Z"  horiz-adv-x="545" vert-adv-y="1000"  />

      
      <glyph glyph-name="uni0436" unicode="&#x0436;" d="M486 499C436 509 386 512 334 501L340 293L283 291C223 463 178 507 119 507C87 507 54 492 37 471C36 452 44 421 58 400C93 412 125 392 173 257L20 25C47-11 99-12 144 0L276 222L347 218L337-14C378-21 420-17 464-5L450 227L508 229C592 41 638-13 720-13C747-13 772-4 786 17C790 46 779 81 766 93C761 92 752 91 746 91C699 91 664 156 599 270L769 490C740 507 679 514 643 500L513 300L456 302Z"  horiz-adv-x="807" vert-adv-y="1000"  />

      
      <glyph glyph-name="uni0437" unicode="&#x0437;" d="M49 463C41 431 46 399 70 365C108 384 180 412 240 411C277 410 337 391 335 342C334 315 306 285 268 286C238 287 217 287 165 286C144 257 154 222 165 193C207 194 245 208 288 200C341 190 354 142 338 116C314 78 276 69 221 71C180 72 117 90 67 123C45 112 29 96 31 34C59 1 148-25 232-26C368-27 458 5 465 118C468 170 446 231 363 255C424 269 452 323 450 381C447 460 386 506 255 506C187 506 103 491 49 463Z"  horiz-adv-x="506" vert-adv-y="1000"  />

      
      <glyph glyph-name="uni0438" unicode="&#x0438;" d="M201 505C149 512 134 505 79 494L66 190C61 75 103-9 236-9C320-9 380 33 424 82C431 7 470-10 517-10C544-10 566-4 582 7C597 24 602 76 588 90C531 75 526 109 524 157C519 272 527 388 540 503C497 511 471 516 428 503C416 389 408 283 409 172C375 126 324 97 280 97C194 97 177 161 183 245Z"  horiz-adv-x="622" vert-adv-y="1000"  />

      
      <glyph glyph-name="uni0439" unicode="&#x0439;" d="M178 701C135 603 214 547 320 547C420 547 481 592 515 634C503 650 487 679 449 688C418 656 380 627 320 627C283 627 254 642 265 698C254 712 189 713 178 701ZM201 505C149 512 134 505 79 494L66 190C61 75 103-9 236-9C320-9 380 33 424 82C431 7 470-10 517-10C544-10 566-4 582 7C597 24 602 76 588 90C531 75 526 109 524 157C519 272 527 388 540 503C497 511 471 516 428 503C416 389 408 283 409 172C375 126 324 97 280 97C194 97 177 161 183 245Z"  horiz-adv-x="622" vert-adv-y="1000"  />

      
      <glyph glyph-name="uni043A" unicode="&#x043A;" d="M188 9L187 219L230 221C300 68 352-15 443-15C476-15 505-10 538 19C548 52 542 94 522 104C505 93 490 89 472 89C430 89 375 143 326 259L514 482C500 503 418 511 382 502L247 304L191 292L209 506C190 521 104 507 90 485L65 4C85-16 173-11 188 9Z"  horiz-adv-x="553" vert-adv-y="1000"  />

      
      <glyph glyph-name="uni043B" unicode="&#x043B;" d="M26 7C53-4 65-10 98-10C196-10 264 101 281 410L384 403C413 401 427 376 425 334L416 92C413 42 428-11 491-11C554-11 583 5 602 30C609 57 606 81 599 96C540 82 531 90 533 145L540 365C543 441 532 500 395 500L118 500C91 481 97 414 115 396L190 410C170 175 126 91 46 114C25 94 12 22 26 7Z"  horiz-adv-x="631" vert-adv-y="1000"  />

      
      <glyph glyph-name="uni043C" unicode="&#x043C;" d="M54 108C34 94 22 51 26 23C44-3 69-11 103-11C212-11 271 103 282 378C329 344 371 262 397 99C430 95 475 121 487 131C499 217 562 379 614 385C596 243 587 150 604 77C621 7 672-11 712-11C736-11 760-1 773 16C778 37 773 78 757 91C728 84 709 107 702 141C691 195 698 299 720 498C592 543 487 436 452 299L443 299C405 450 308 506 216 506C172 506 131 499 109 484C99 452 115 413 141 394L197 398C181 182 134 84 54 108Z"  horiz-adv-x="800" vert-adv-y="1000"  />

      
      <glyph glyph-name="uni043D" unicode="&#x043D;" d="M72 499L65 0C83-17 174-16 193 0L186 215L417 221C405 48 435-11 533-11C557-11 589 1 602 18C613 41 612 85 599 96C553 83 529 90 529 176C529 254 533 396 546 500C524 516 445 515 423 497C415 437 418 368 418 303L185 303L200 501C162 509 102 510 72 499Z"  horiz-adv-x="635" vert-adv-y="1000"  />

      
      <glyph glyph-name="uni043E" unicode="&#x043E;" d="M298 510C171 510 40 421 40 235C40 122 88-13 289-14C450-15 545 99 545 267C545 398 481 510 298 510ZM160 233C160 349 225 414 301 414C399 414 428 336 428 264C428 162 393 79 286 79C194 79 160 152 160 233Z"  horiz-adv-x="585" vert-adv-y="1000"  />

      
      <glyph glyph-name="uni043F" unicode="&#x043F;" d="M526 305C531 409 510 512 362 512C303 512 247 484 191 420L184 508C160 520 92 517 74 496C89 321 72 202 65 0C91-16 157-11 183 0L186 322C222 372 270 405 316 405C382 405 412 380 409 289L402 102C399 24 426-10 489-10C533-10 558 3 584 22C597 42 596 80 584 96C526 80 520 97 521 130Z"  horiz-adv-x="619" vert-adv-y="1000"  />

      
      <glyph glyph-name="uni0440" unicode="&#x0440;" d="M191 507C155 513 117 512 81 496C95 253 69 12 55-229C88-235 132-235 169-223L181 15C418-52 556 62 556 285C556 451 466 512 366 512C291 512 246 486 197 438ZM191 333C236 390 278 411 323 411C400 411 433 364 433 273C433 134 349 47 184 116Z"  horiz-adv-x="596" vert-adv-y="1000"  />

      
      <glyph glyph-name="uni0441" unicode="&#x0441;" d="M494 395C473 453 427 516 282 510C161 505 40 424 40 245C40 122 108-9 289-9C351-9 416 5 466 43C479 78 475 99 459 132C283 45 163 122 163 250C163 350 219 411 295 411C353 411 385 377 397 323C439 326 490 347 494 395Z"  horiz-adv-x="519" vert-adv-y="1000"  />

      
      <glyph glyph-name="uni0442" unicode="&#x0442;" d="M704 107C701 24 720-13 801-13C836-13 863-4 878 12C888 29 888 81 877 93C836 82 819 94 820 127L828 302C833 406 806 512 675 512C595 512 544 475 492 409C483 480 432 512 364 512C284 512 239 481 192 424L184 508C160 520 92 517 74 496C89 321 72 202 65 0C91-16 157-11 183 0L187 316C223 382 270 405 313 405C367 405 393 374 391 289L384-2C406-17 460-18 498 2L508 305L508 322C532 364 583 405 631 405C688 405 714 371 711 286Z"  horiz-adv-x="911" vert-adv-y="1000"  />

      
      <glyph glyph-name="uni0443" unicode="&#x0443;" d="M212 504C184 513 114 508 89 487C73 357 71 280 78 202C85 121 111 57 161 22C87-19 50-76 50-137C50-216 130-274 244-274C367-274 501-235 501 46C501 195 509 341 529 488C511 505 430 519 404 507C404 400 400 319 396 258C387 118 345 77 289 77C183 77 161 238 212 504ZM267-8C303-8 360 8 403 70C403-108 363-178 263-178C193-178 164-143 164-104C164-71 184-33 229-5C241-7 253-8 267-8Z"  horiz-adv-x="584" vert-adv-y="1000"  />

      
      <glyph glyph-name="uni0444" unicode="&#x0444;" d="M331 472C295 502 259 520 214 520C125 520 40 426 40 241C40 119 93-4 206-4C253-4 287 15 313 48L304-239C324-250 399-254 428-240L430 26C454 0 489-9 527-9C668-9 721 131 721 284C721 393 689 505 582 505C528 505 490 478 447 443L465 701C415 712 383 715 336 699ZM157 252C157 318 176 414 244 414C273 414 305 405 327 392L316 134C288 109 263 102 244 102C182 102 157 162 157 252ZM435 355C463 376 498 392 526 392C585 392 606 322 606 249C606 169 560 90 501 90C474 90 450 96 429 113Z"  horiz-adv-x="761" vert-adv-y="1000"  />

      
      <glyph glyph-name="uni0445" unicode="&#x0445;" d="M20 34C33 5 87-16 127-12C157 52 210 131 268 194L357 41C383-3 421-21 456-21C521-21 530 34 521 64C500 62 475 75 458 100L346 258C414 324 515 425 531 475C518 504 469 512 422 508C376 440 341 385 284 323L201 467C177 509 151 514 119 514C71 514 56 467 58 444C70 440 83 433 92 420L210 256C130 185 60 103 20 34Z"  horiz-adv-x="551" vert-adv-y="1000"  />

      
      <glyph glyph-name="uni0446" unicode="&#x0446;" d="M201 505C149 512 134 505 79 494L66 190C61 75 103-9 236-9C320-9 380 33 424 82C420 7 452-7 490 7C464-35 455-103 458-150C478-182 538-180 561-170C562-73 583 4 608 65C610 76 610 89 598 90C541 75 526 109 524 157C519 272 527 388 540 503C497 511 471 516 428 503C416 389 408 283 409 172C375 126 324 97 280 97C194 97 177 161 183 245Z"  horiz-adv-x="634" vert-adv-y="1000"  />

      
      <glyph glyph-name="uni0447" unicode="&#x0447;" d="M161 505C109 512 70 510 43 494L36 354C30 243 88 177 176 177C260 177 304 209 331 241C309 18 369-10 434-10C461-10 483-4 499 7C514 24 519 76 505 90C448 75 443 109 441 157C436 272 444 388 457 503C414 511 388 516 345 503C343 441 336 365 334 336C311 294 275 271 227 271C164 271 149 328 153 392Z"  horiz-adv-x="539" vert-adv-y="1000"  />

      
      <glyph glyph-name="uni0448" unicode="&#x0448;" d="M498 505C446 512 405 503 376 494L363 190C362 184 362 178 362 172C339 126 293 97 250 97C184 97 177 161 183 245L201 505C149 512 115 505 79 494L66 190C61 75 93-9 206-9C288-9 334 25 381 72C400 24 441-9 503-9C587-9 627 26 671 75C679 7 717-10 764-10C791-10 813-4 829 7C844 24 849 76 835 90C778 75 771 109 771 188C771 242 774 388 787 503C744 511 707 512 675 503C663 389 655 283 656 172C633 125 591 97 547 97C481 97 474 161 480 245Z"  horiz-adv-x="869" vert-adv-y="1000"  />

      
      <glyph glyph-name="uni0449" unicode="&#x0449;" d="M498 505C446 512 405 504 376 494L363 190C362 184 362 178 362 172C339 126 293 97 250 97C184 97 177 161 183 245L201 505C165 511 119 505 79 494L66 190C61 75 93-9 206-9C288-9 335 24 382 72C401 24 441-9 503-9C587-9 627 26 671 75C671 7 705-9 737 6C713-45 703-120 711-155C727-170 772-185 811-171C811-94 830 2 858 62C865 77 855 88 845 90C788 75 771 109 771 192C771 259 774 388 787 503C744 511 702 511 675 503C663 389 655 283 656 172C633 125 591 97 547 97C481 97 474 161 480 245Z"  horiz-adv-x="886" vert-adv-y="1000"  />

      
      <glyph glyph-name="uni044A" unicode="&#x044A;" d="M175 404C123 316 102 248 102 166C102 60 179-6 281-6C412-6 479 81 479 174C479 286 400 361 247 335C258 365 294 416 326 438C332 459 312 506 295 514C224 488 163 484 24 501C12 481 12 416 29 392C79 390 117 389 175 404ZM222 251C320 271 372 232 372 170C372 108 333 86 293 86C247 86 194 121 222 251Z"  horiz-adv-x="524" vert-adv-y="1000"  />

      
      <glyph glyph-name="uni044B" unicode="&#x044B;" d="M208 497C164 520 99 516 86 504L67 227C54 34 157-12 266-12C396-12 473 71 473 194C473 344 315 377 194 351ZM189 262C267 282 354 260 354 176C354 118 322 81 269 81C188 81 170 164 189 262ZM675 502C629 510 578 510 547 503L533 147C529 39 566-7 636-7C671-7 711 2 728 22C731 46 722 82 709 99C669 87 650 112 655 188Z"  horiz-adv-x="754" vert-adv-y="1000"  />

      
      <glyph glyph-name="uni044C" unicode="&#x044C;" d="M208 502C169 507 126 509 78 500L66 239C57 47 144-10 274-10C385-10 499 52 499 189C499 345 356 387 200 348ZM195 252C287 286 375 257 375 178C375 110 337 80 286 80C212 80 180 130 195 252Z"  horiz-adv-x="544" vert-adv-y="1000"  />

      
      <glyph glyph-name="uni044D" unicode="&#x044D;" d="M119 355C157 384 206 402 259 402C335 402 387 351 387 283C312 306 211 316 165 286C154 266 167 215 189 197C232 212 286 212 391 197C391 123 321 85 239 85C182 85 139 100 105 131C76 121 38 83 35 55C64 10 135-17 239-17C386-17 509 71 509 251C509 394 438 507 271 507C188 507 111 482 63 447C49 411 86 365 119 355Z"  horiz-adv-x="549" vert-adv-y="1000"  />

      
      <glyph glyph-name="uni044E" unicode="&#x044E;" d="M207 492C166 505 126 508 84 489L65-4C107-20 143-13 187-4L186 193L270 203C272 71 343-13 472-18C622-23 704 99 706 276C708 412 642 509 490 509C348 509 289 402 272 301L191 290ZM369 253C375 340 412 411 493 405C582 398 589 314 587 257C584 182 563 94 500 88C395 78 363 164 369 253Z"  horiz-adv-x="747" vert-adv-y="1000"  />

      
      <glyph glyph-name="uni044F" unicode="&#x044F;" d="M487 335C490 421 443 513 295 513C160 513 68 457 68 357C68 275 118 223 194 211C163 131 114 72 53 88C40 72 31 33 37 13C49 0 70-10 99-10C180-10 242 47 295 195L371 212C352 68 375-7 457-7C483-7 504-1 526 11C535 31 526 72 520 88C502 84 478 84 480 137ZM377 298C248 249 184 289 184 355C184 404 228 425 275 425C355 425 386 380 377 298Z"  horiz-adv-x="555" vert-adv-y="1000"  />

      
      <glyph glyph-name="uni0491" unicode="&#x0491;" d="M60 5C73-13 159-15 180 10L177 268C177 432 252 416 391 393C406 430 421 517 421 564C415 577 370 589 349 576L315 503C179 520 79 499 72 348Z"  horiz-adv-x="432" vert-adv-y="1000"  />

      
      <glyph glyph-name="uni0452" unicode="&#x0452;" d="M21 492C7 470-8 405 15 383L122 398L107 0C133-16 199-11 225 0L225 186C261 215 314 235 361 235C433 235 467 210 465 126L463 55C459-76 398-123 289-112C277-138 277-209 304-227C485-227 573-127 580 54L582 130C586 234 556 342 408 342C341 342 283 327 229 284L235 405L539 393C560 413 554 470 542 500L239 495L251 718C211 726 151 714 133 693L125 493Z"  horiz-adv-x="625" vert-adv-y="1000"  />

      
      <glyph glyph-name="uni0453" unicode="&#x0453;" d="M89 364C63 379 29 420 36 446C83 490 164 514 231 514C331 514 376 462 376 394C376 267 182 201 182 125C182 96 200 82 234 82C278 82 318 111 355 164C374 162 414 122 422 85C360 11 290-17 219-17C126-17 57 25 57 106C57 242 262 295 262 386C262 410 244 419 214 419C176 419 127 400 89 364ZM223 726L174 587C179 577 221 566 237 573L352 719C328 738 232 741 223 726Z"  horiz-adv-x="428" vert-adv-y="1000"  />

      
      <glyph glyph-name="uni0454" unicode="&#x0454;" d="M484 395C463 453 424 516 279 510C158 505 40 404 40 246C40 114 105-9 276-9C362-9 401 0 456 43C470 68 464 114 449 132C295 52 192 103 168 209L341 203C356 218 361 279 348 297L165 296C175 367 218 412 301 411C350 410 375 377 387 323C429 326 480 347 484 395Z"  horiz-adv-x="510" vert-adv-y="1000"  />

      
      <glyph glyph-name="uni0455" unicode="&#x0455;" d="M477 477C435 501 356 512 274 512C160 512 74 467 74 376C74 210 367 197 367 129C367 94 331 82 274 82C218 82 131 113 88 147C58 127 38 67 48 38C92 6 198-14 267-14C430-14 480 62 480 135C480 301 196 293 196 377C196 409 240 420 292 420C328 420 407 404 436 383C465 392 482 446 477 477Z"  horiz-adv-x="525" vert-adv-y="1000"  />

      
      <glyph glyph-name="uni0456" unicode="&#x0456;" d="M213 494C165 509 135 507 88 498L76 93C74 17 114-11 170-13C205-14 244-3 266 11C281 39 281 83 266 98C206 78 195 99 198 171ZM155 589C189 589 238 612 238 674C238 707 208 740 163 740C119 740 81 707 81 659C81 628 110 589 155 589Z"  horiz-adv-x="313" vert-adv-y="1000"  />

      
      <glyph glyph-name="uni0457" unicode="&#x0457;" d="M70 589C101 601 133 628 150 663C132 696 106 723 72 740C39 727 9 697-7 666C11 632 36 605 70 589ZM253 589C284 601 316 628 333 663C315 696 289 723 255 740C222 727 192 697 176 666C194 632 219 605 253 589ZM213 494C165 509 135 507 88 498L76 93C74 17 114-11 170-13C205-14 244-3 266 11C281 39 281 83 266 98C206 78 195 99 198 171Z"  horiz-adv-x="336" vert-adv-y="1000"  />

      
      <glyph glyph-name="uni0458" unicode="&#x0458;" d="M272-53C281 126 285 312 291 499C273 511 186 510 163 497C174 361 176 251 172 114C32 65-35-16-35-107C-35-208 43-239 119-239C228-239 266-170 272-53ZM230 589C264 589 313 612 313 674C313 707 283 740 238 740C194 740 156 707 156 659C156 628 185 589 230 589ZM114-137C91-137 76-121 76-86C76-48 112 8 170 46C170 34 169 23 169 11C165-103 152-137 114-137Z"  horiz-adv-x="373" vert-adv-y="1000"  />

      
      <glyph glyph-name="uni0459" unicode="&#x0459;" d="M26 7C53-4 65-10 98-10C196-10 264 101 281 410L374 403C403 401 416 376 415 334L412 235C407 59 460-8 594-8C721-8 804 70 804 190C804 293 735 350 621 350C591 350 555 345 528 339L530 365C534 441 522 500 385 500L118 500C91 481 97 414 115 396L190 410C170 175 126 91 46 114C25 94 12 22 26 7ZM593 254C657 254 682 223 682 176C682 120 653 80 598 80C538 80 518 122 523 242C552 250 570 254 593 254Z"  horiz-adv-x="849" vert-adv-y="1000"  />

      
      <glyph glyph-name="uni045A" unicode="&#x045A;" d="M72 499L65 0C83-17 174-16 193 0L186 215L397 221C390 16 496-11 578-11C724-11 799 93 799 197C799 286 743 363 603 363C575 363 542 356 517 348C521 393 523 436 526 500C504 516 425 515 403 497C395 437 398 368 398 303L185 303L200 501C162 509 102 510 72 499ZM574 266C643 266 676 232 676 175C676 114 645 80 592 80C524 80 503 122 510 252C527 260 547 266 574 266Z"  horiz-adv-x="844" vert-adv-y="1000"  />

      
      <glyph glyph-name="uni045B" unicode="&#x045B;" d="M96 693L94 638L0 636C-17 625-13 559 8 550L90 553L70 0C97-16 163-11 188 0L194 336C237 380 275 405 321 405C385 405 411 374 407 289C403 193 396 117 395 82C393 16 434-11 484-11C538-11 567 2 587 18C603 43 599 83 588 97C562 90 516 79 518 121L525 305C529 409 504 512 366 512C300 512 252 488 197 434L204 557L343 562C357 575 362 638 342 644L209 641L214 718C175 726 114 714 96 693Z"  horiz-adv-x="625" vert-adv-y="1000"  />

      
      <glyph glyph-name="uni045C" unicode="&#x045C;" d="M188 9L187 219L230 221C300 68 352-15 443-15C476-15 505-10 538 19C548 52 542 94 522 104C505 93 490 89 472 89C430 89 375 143 326 259L514 482C500 503 418 511 382 502L247 304L191 292L209 506C190 521 104 507 90 485L65 4C85-16 173-11 188 9ZM278 726L229 587C234 577 276 566 292 573L407 719C383 738 287 741 278 726Z"  horiz-adv-x="553" vert-adv-y="1000"  />

      
      <glyph glyph-name="uni045E" unicode="&#x045E;" d="M212 504C184 513 114 508 89 487C73 357 71 280 78 202C85 121 111 57 161 22C87-19 50-76 50-137C50-216 130-274 244-274C367-274 501-235 501 46C501 195 509 341 529 488C511 505 430 519 404 507C404 400 400 319 396 258C387 118 345 77 289 77C183 77 161 238 212 504ZM267-8C303-8 360 8 403 70C403-108 363-178 263-178C193-178 164-143 164-104C164-71 184-33 229-5C241-7 253-8 267-8ZM178 701C135 603 214 547 320 547C420 547 481 592 515 634C503 650 487 679 449 688C418 656 380 627 320 627C283 627 254 642 265 698C254 712 189 713 178 701Z"  horiz-adv-x="584" vert-adv-y="1000"  />

      
      <glyph glyph-name="uni040F" unicode="&#x040F;" d="M681 709C634 721 588 725 541 711L515 112L200 108L226 709C178 719 134 722 86 710L60-6L296-4L284-170C294-194 416-194 430-164L419-3L638-1Z"  horiz-adv-x="741" vert-adv-y="1000"  />

      
      <glyph glyph-name="uni045F" unicode="&#x045F;" d="M227-2L215-121C223-148 325-148 333-128L327-3L505-6L537 495C485 510 455 508 412 496L397 103L173 107L192 509C147 515 112 514 66 498L63 0Z"  horiz-adv-x="592" vert-adv-y="1000"  />

      
      <glyph glyph-name="uni2116" unicode="&#x2116;" d="M81 673C98 700 171 710 208 698L464 254L509 131L517 135L509 271L510 696C537 711 608 715 637 697L593 4C565-23 522-31 484-21L210 454L168 569L161 562L173 426L178 5C147-12 91-7 60 7ZM947 722C820 723 738 652 730 539C721 422 777 313 936 312C1063 311 1132 400 1133 532C1134 637 1070 721 947 722ZM826 529C834 606 872 646 941 640C1014 634 1041 590 1041 525C1041 454 1012 399 935 396C856 392 818 452 826 529ZM725 247C707 245 686 171 694 157L1114 159C1132 172 1146 258 1134 262Z"  horiz-adv-x="1199" vert-adv-y="1000"  />

      
      <glyph glyph-name="unie0" unicode="&#xe0;" d="M499 500C488 511 435 513 421 505L398 460C374 487 326 513 264 513C142 513 40 410 40 230C40 54 141-16 235-16C315-16 353 17 392 71C401 29 432-10 489-10C513-10 526-7 539-3C561 15 568 76 553 90C512 84 487 89 487 157C487 209 490 332 499 500ZM392 381L381 141C347 110 309 84 268 84C192 84 154 149 154 247C154 348 205 421 279 421C322 421 365 404 392 381ZM300 726C291 751 195 738 171 719L281 573C311 564 337 569 344 587Z"  horiz-adv-x="586" vert-adv-y="1000"  />

      
      <glyph glyph-name="uni0101" unicode="&#x0101;" d="M499 500C488 511 435 513 421 505L398 460C374 487 326 513 264 513C142 513 40 410 40 230C40 54 141-16 235-16C315-16 353 17 392 71C401 29 432-10 489-10C513-10 526-7 539-3C561 15 568 76 553 90C512 84 487 89 487 157C487 209 490 332 499 500ZM392 381L381 141C347 110 309 84 268 84C192 84 154 149 154 247C154 348 205 421 279 421C322 421 365 404 392 381ZM169 686C152 675 156 609 177 600L434 600C448 613 454 688 434 694Z"  horiz-adv-x="586" vert-adv-y="1000"  />

      
      <glyph glyph-name="uni26" unicode="&#x26;" d="M40 154C40 41 108-15 224-15C317-15 377 12 434 75C490 31 540-3 575-25C619-38 711-14 729 6C650 59 573 114 502 170C519 196 539 240 548 277L668 273C690 281 709 371 700 382L477 349C467 299 452 250 439 222C394 257 349 297 307 348C396 402 474 475 474 562C474 655 410 712 295 712C190 712 93 651 93 528C93 473 116 419 156 359C96 309 40 237 40 154ZM373 127C331 80 290 55 244 55C205 55 144 79 144 167C144 203 163 258 197 304C248 242 311 180 373 127ZM194 533C194 601 236 638 287 638C331 638 375 617 375 558C375 488 301 422 263 393C218 448 194 494 194 533Z"  horiz-adv-x="769" vert-adv-y="1000"  />

      
      <glyph glyph-name="uni0105" unicode="&#x0105;" d="M499 500C488 511 435 513 421 505L398 460C374 487 326 513 264 513C142 513 40 410 40 230C40 54 141-16 235-16C315-16 353 17 392 71C396 50 406 29 422 14C357-23 314-67 314-132C314-197 372-225 428-225C489-225 527-188 549-149C555-132 534-98 513-101C493-121 472-133 448-133C426-133 416-119 416-103C416-73 454-34 499-10C517-9 528-6 539-3C561 15 568 76 553 90C512 84 487 89 487 157C487 209 490 332 499 500ZM392 381L381 141C347 110 309 84 268 84C192 84 154 149 154 247C154 348 205 421 279 421C322 421 365 404 392 381Z"  horiz-adv-x="586" vert-adv-y="1000"  />

      
      <glyph glyph-name="unie5" unicode="&#xe5;" d="M499 500C488 511 435 513 421 505L398 460C374 487 326 513 264 513C142 513 40 410 40 230C40 54 141-16 235-16C315-16 353 17 392 71C401 29 432-10 489-10C513-10 526-7 539-3C561 15 568 76 553 90C512 84 487 89 487 157C487 209 490 332 499 500ZM392 381L381 141C347 110 309 84 268 84C192 84 154 149 154 247C154 348 205 421 279 421C322 421 365 404 392 381ZM195 649C195 599 243 559 304 559C365 559 413 599 413 649C413 699 365 740 304 740C243 740 195 699 195 649ZM267 649C267 671 284 688 304 688C324 688 340 671 340 649C340 627 324 610 304 610C284 610 267 627 267 649Z"  horiz-adv-x="586" vert-adv-y="1000"  />

      
      <glyph glyph-name="uni5e" unicode="&#x5e;" d="M239 734L60 471C72 448 158 425 188 447L290 652L395 445C409 431 503 447 512 474C512 475 346 735 346 735C336 751 264 755 239 734Z"  horiz-adv-x="572" vert-adv-y="1000"  />

      
      <glyph glyph-name="uni7e" unicode="&#x7e;" d="M78 254C101 276 130 287 167 287C229 287 292 246 368 246C428 246 461 297 468 355C466 374 444 398 426 402C403 374 379 361 347 361C308 361 227 399 166 399C118 399 61 371 44 314C44 296 61 260 78 254Z"  horiz-adv-x="512" vert-adv-y="1000"  />

      
      <glyph glyph-name="uni2a" unicode="&#x2a;" d="M129 518L42 457C38 419 87 341 127 345L203 456ZM202 420L248 330C292 314 370 357 370 390L279 485ZM191 621L113 686C73 678 20 592 33 568L157 529ZM317 467L423 485C441 513 439 600 406 616L284 555ZM307 586L339 694C318 722 228 738 207 720L213 591Z"  horiz-adv-x="465" vert-adv-y="1000"  />

      
      <glyph glyph-name="uni40" unicode="&#x40;" d="M671 474C639 496 565 513 489 513C349 513 254 369 254 233C254 96 333 42 408 42C479 42 528 78 568 166C579 54 649 39 698 39C804 39 907 145 907 340C907 584 751 719 520 719C259 719 40 532 40 247C40-91 285-163 466-163C542-163 608-149 645-134C647-127 650-116 650-108C650-81 639-55 618-43C580-57 515-69 467-69C338-69 148-8 148 241C148 516 341 636 514 636C701 636 801 523 801 345C801 207 754 124 690 124C673 124 650 138 651 161ZM562 424L549 261C529 187 475 127 446 127C412 127 373 154 373 228C373 327 424 435 521 435C533 435 544 433 562 424Z"  horiz-adv-x="947" vert-adv-y="1000"  />

      
      <glyph glyph-name="unie3" unicode="&#xe3;" d="M499 500C488 511 435 513 421 505L398 460C374 487 326 513 264 513C142 513 40 410 40 230C40 54 141-16 235-16C315-16 353 17 392 71C401 29 432-10 489-10C513-10 526-7 539-3C561 15 568 76 553 90C512 84 487 89 487 157C487 209 490 332 499 500ZM392 381L381 141C347 110 309 84 268 84C192 84 154 149 154 247C154 348 205 421 279 421C322 421 365 404 392 381ZM174 581C191 596 209 609 234 609C285 609 307 578 362 578C412 578 453 612 457 667C452 695 412 711 400 708C384 686 375 677 351 677C313 677 279 710 228 710C185 710 146 678 132 652C128 632 144 582 174 581Z"  horiz-adv-x="586" vert-adv-y="1000"  />

      
      <glyph glyph-name="uni62" unicode="&#x62;" d="M66 213C60 33 199-22 294-22C464-22 568 99 568 269C568 405 495 496 369 496C292 496 233 463 189 427L204 679C178 694 103 697 82 678ZM189 339C238 378 283 403 335 403C411 403 445 348 445 276C445 155 396 82 310 82C248 82 183 110 187 246Z"  horiz-adv-x="608" vert-adv-y="1000"  />

      
      <glyph glyph-name="uni5c" unicode="&#x5c;" d="M114 755C100 766 32 742 14 716L327-16C348-25 424-6 430 15Z"  horiz-adv-x="465" vert-adv-y="1000"  />

      
      <glyph glyph-name="uni7c" unicode="&#x7c;" d="M108 711L97-207C96-234 195-241 215-216L213 704C192 728 118 732 108 711Z"  horiz-adv-x="311" vert-adv-y="1000"  />

      
      <glyph glyph-name="uni7b" unicode="&#x7b;" d="M325 726C257 727 155 719 132 673C104 616 142 483 123 385C112 328 73 299 35 289C23 273 22 242 35 229C74 216 109 191 116 130C129 21 77-110 101-175C117-222 222-229 261-223C271-215 286-178 277-150C253-143 221-135 213-116C191-69 255 108 231 194C221 227 178 249 131 258L131 268C186 280 223 295 236 332C264 410 218 542 239 594C254 632 305 638 331 646C346 667 341 718 325 726Z"  horiz-adv-x="370" vert-adv-y="1000"  />

      
      <glyph glyph-name="uni7d" unicode="&#x7d;" d="M67 726C51 718 42 667 55 646C81 638 123 632 136 594C153 542 97 410 119 332C130 295 167 280 220 268L220 258C173 249 128 227 116 194C86 108 136-69 112-116C102-135 59-143 35-150C24-178 35-215 45-223C84-229 200-222 220-175C248-110 206 21 225 130C236 191 273 216 314 229C327 242 328 273 318 289C280 299 243 328 236 385C225 483 271 616 247 673C228 719 135 727 67 726Z"  horiz-adv-x="350" vert-adv-y="1000"  />

      
      <glyph glyph-name="uni5b" unicode="&#x5b;" d="M347 709C281 721 151 717 101 707L65-200C111-207 243-212 312-199C327-175 329-103 320-87C285-96 214-99 179-99L221 616C258 616 308 614 335 607C350 626 364 686 347 709Z"  horiz-adv-x="390" vert-adv-y="1000"  />

      
      <glyph glyph-name="uni5d" unicode="&#x5d;" d="M44-190C111-202 252-198 300-188L317 709C269 716 137 721 69 708C55 684 55 612 65 596C99 605 167 608 202 608L177-97C140-97 80-95 53-88C38-107 28-167 44-190Z"  horiz-adv-x="382" vert-adv-y="1000"  />

      
      <glyph glyph-name="uni02D8" unicode="&#x02D8;" d="M135 719C125 731 73 726 62 706C74 596 154 558 241 558C331 558 408 596 427 706C417 720 369 729 354 719C340 671 308 645 245 645C181 645 146 671 135 719Z"  horiz-adv-x="494" vert-adv-y="1000"  />

      
      <glyph glyph-name="unia6" unicode="&#xa6;" d="M198-170L195 178C176 201 87 198 78 177L60-178C91-202 180-196 198-170ZM71 705L74 357C87 339 178 334 191 358L209 713C178 737 89 731 71 705Z"  horiz-adv-x="262" vert-adv-y="1000"  />

      
      <glyph glyph-name="uni2022" unicode="&#x2022;" d="M152 371C152 289 224 223 314 223C403 223 475 289 475 371C475 452 403 520 314 520C224 520 152 452 152 371ZM248 467C284 488 319 486 329 470C339 455 330 434 302 416C277 400 235 393 219 409C207 423 217 449 248 467ZM438 366C433 309 398 277 373 264C337 245 299 252 274 258C267 260 272 277 276 276C305 272 334 274 360 288C394 306 411 326 421 366C423 373 439 375 438 366Z"  horiz-adv-x="607" vert-adv-y="1000"  />

      
      <glyph glyph-name="uni63" unicode="&#x63;" d="M494 395C473 453 427 516 282 510C161 505 40 424 40 245C40 122 108-9 289-9C351-9 416 5 466 43C479 78 475 99 459 132C283 45 163 122 163 250C163 350 219 411 295 411C353 411 385 377 397 323C439 326 490 347 494 395Z"  horiz-adv-x="519" vert-adv-y="1000"  />

      
      <glyph glyph-name="uni0107" unicode="&#x0107;" d="M494 395C473 453 427 516 282 510C161 505 40 424 40 245C40 122 108-9 289-9C351-9 416 5 466 43C479 78 475 99 459 132C283 45 163 122 163 250C163 350 219 411 295 411C353 411 385 377 397 323C439 326 490 347 494 395ZM279 726L230 587C235 577 277 566 293 573L408 719C384 738 288 741 279 726Z"  horiz-adv-x="519" vert-adv-y="1000"  />

      
      <glyph glyph-name="uni02C7" unicode="&#x02C7;" d="M226 634L138 722C105 730 74 717 68 700L179 555C199 544 246 538 267 555L376 701C375 712 342 731 321 723Z"  horiz-adv-x="425" vert-adv-y="1000"  />

      
      <glyph glyph-name="uni010D" unicode="&#x010D;" d="M494 395C473 453 427 516 282 510C161 505 40 424 40 245C40 122 108-9 289-9C351-9 416 5 466 43C479 78 475 99 459 132C283 45 163 122 163 250C163 350 219 411 295 411C353 411 385 377 397 323C439 326 490 347 494 395ZM295 634L207 722C174 730 143 717 137 700L248 555C268 544 315 538 336 555L445 701C444 712 411 731 390 723Z"  horiz-adv-x="519" vert-adv-y="1000"  />

      
      <glyph glyph-name="unie7" unicode="&#xe7;" d="M494 395C473 453 427 516 282 510C161 505 40 424 40 245C40 135 94 20 233-4L204-76C254-82 294-97 294-124C294-159 259-157 194-134C178-131 154-177 166-198C287-255 381-215 381-128C381-76 354-49 297-41L312-8C367-5 422 9 466 43C479 78 475 99 459 132C283 45 163 122 163 250C163 350 219 411 295 411C353 411 385 377 397 323C439 326 490 347 494 395Z"  horiz-adv-x="519" vert-adv-y="1000"  />

      
      <glyph glyph-name="uni0109" unicode="&#x0109;" d="M494 395C473 453 427 516 282 510C161 505 40 424 40 245C40 122 108-9 289-9C351-9 416 5 466 43C479 78 475 99 459 132C283 45 163 122 163 250C163 350 219 411 295 411C353 411 385 377 397 323C439 326 490 347 494 395ZM290 637L380 554C413 546 443 559 450 576L319 736C304 742 285 745 270 736L142 575C143 564 179 545 200 553Z"  horiz-adv-x="519" vert-adv-y="1000"  />

      
      <glyph glyph-name="uni010B" unicode="&#x010B;" d="M494 395C473 453 427 516 282 510C161 505 40 424 40 245C40 122 108-9 289-9C351-9 416 5 466 43C479 78 475 99 459 132C283 45 163 122 163 250C163 350 219 411 295 411C353 411 385 377 397 323C439 326 490 347 494 395ZM288 589C319 601 351 628 368 663C350 696 324 723 290 740C257 727 227 697 211 666C229 632 254 605 288 589Z"  horiz-adv-x="519" vert-adv-y="1000"  />

      
      <glyph glyph-name="unib8" unicode="&#xb8;" d="M105-76C155-82 195-97 195-124C195-159 160-157 95-134C79-131 55-177 67-198C188-255 282-215 282-128C282-76 255-49 198-41L232 31L155 49Z"  horiz-adv-x="319" vert-adv-y="1000"  />

      
      <glyph glyph-name="unia2" unicode="&#xa2;" d="M485 395C467 444 435 498 336 508L351 597C325 615 255 619 234 601L244 506C136 487 40 404 40 254C40 135 92 19 224-4L210-94C233-111 298-120 326-98L316-8C375-5 410 7 456 43C470 68 466 112 449 132C273 40 163 122 163 260C163 348 205 412 301 411C350 410 375 377 387 323C429 326 480 347 485 395Z"  horiz-adv-x="519" vert-adv-y="1000"  />

      
      <glyph glyph-name="uni02C6" unicode="&#x02C6;" d="M211 637L301 554C334 546 364 559 371 576L240 736C225 742 206 745 191 736L63 575C64 564 100 545 121 553Z"  horiz-adv-x="464" vert-adv-y="1000"  />

      
      <glyph glyph-name="uni3a" unicode="&#x3a;" d="M50 64C50 18 91-19 141-19C191-19 232 18 232 64C232 110 191 148 141 148C91 148 50 110 50 64ZM63 423C63 377 104 340 154 340C204 340 245 377 245 423C245 469 204 507 154 507C104 507 63 469 63 423Z"  horiz-adv-x="295" vert-adv-y="1000"  />

      
      <glyph glyph-name="uni2c" unicode="&#x2c;" d="M131-184C208-125 261-33 261 50C261 132 203 176 150 176C96 176 50 136 50 83C50 44 72-23 153-11C141-62 115-106 67-141C72-162 98-189 131-184Z"  horiz-adv-x="311" vert-adv-y="1000"  />

      
      <glyph glyph-name="unia9" unicode="&#xa9;" d="M322 730C159 735 55 640 44 496C33 347 104 207 308 206C469 205 563 291 575 461C586 610 497 725 322 730ZM133 481C135 601 225 655 313 653C415 651 487 590 484 464C481 340 414 282 308 282C207 282 131 350 133 481ZM424 548C411 581 387 617 304 614C235 611 172 562 172 467C172 391 215 316 313 316C362 316 383 331 414 356C421 376 417 395 407 414C321 352 247 391 246 470C245 521 268 557 319 557C347 557 361 537 369 506C393 508 423 520 424 548Z"  horiz-adv-x="617" vert-adv-y="1000"  />

      
      <glyph glyph-name="uni64" unicode="&#x64;" d="M522-9C550-9 576-5 595 4C612 35 612 78 596 92C557 87 518 98 518 189C517 319 537 536 548 732C520 750 456 743 434 726L416 446C371 471 324 490 266 490C118 490 40 388 40 234C40 71 123-9 256-9C311-9 370 18 408 67C430 14 461-9 522-9ZM408 160C372 119 321 84 276 84C201 84 159 145 159 239C159 333 204 408 288 408C332 408 380 391 419 366Z"  horiz-adv-x="633" vert-adv-y="1000"  />

      
      <glyph glyph-name="uni2020" unicode="&#x2020;" d="M187 630L201 447L59 460C42 439 42 379 58 352L200 368L208-245C233-260 280-259 297-245L295 368L442 353C457 381 452 434 440 458L294 448L308 630C259 649 215 648 187 630Z"  horiz-adv-x="500" vert-adv-y="1000"  />

      
      <glyph glyph-name="uni2021" unicode="&#x2021;" d="M74 113C52 103 46 13 67-4L204 12L208-245C233-260 280-259 297-245L296 14L436-9C461 12 454 83 438 110L296 99L295 368L442 353C457 381 452 434 440 458L294 448L308 630C259 649 215 648 187 630L201 447L59 460C42 439 42 379 58 352L200 368L203 101Z"  horiz-adv-x="500" vert-adv-y="1000"  />

      
      <glyph glyph-name="uni010F" unicode="&#x010F;" d="M622 710C636 649 628 589 608 530C608 508 666 494 684 508C712 546 734 644 734 721C725 738 638 736 622 710ZM522-9C550-9 576-5 595 4C612 35 612 78 596 92C557 87 518 98 518 189C517 319 537 536 548 732C520 750 456 743 434 726L416 446C371 471 324 490 266 490C118 490 40 388 40 234C40 71 123-9 256-9C311-9 370 18 408 67C430 14 461-9 522-9ZM408 160C372 119 321 84 276 84C201 84 159 145 159 239C159 333 204 408 288 408C332 408 380 391 419 366Z"  horiz-adv-x="703" vert-adv-y="1000"  />

      
      <glyph glyph-name="uni0111" unicode="&#x0111;" d="M522-9C550-9 576-5 595 4C612 35 612 78 596 92C557 87 518 98 518 189C517 277 526 407 536 542L642 541C657 575 656 610 647 644L543 646L548 732C520 750 456 743 434 726L429 649L282 652C274 616 273 581 287 547L422 544L416 446C371 471 324 490 266 490C118 490 40 388 40 234C40 71 123-9 256-9C311-9 370 18 408 67C430 14 461-9 522-9ZM408 160C372 119 321 84 276 84C201 84 159 145 159 239C159 333 204 408 288 408C332 408 380 391 419 366Z"  horiz-adv-x="649" vert-adv-y="1000"  />

      
      <glyph glyph-name="unib0" unicode="&#xb0;" d="M-12 582C-12 508 42 449 116 449C190 449 244 508 244 582C244 656 190 715 116 715C42 715-12 656-12 582ZM73 582C73 609 89 631 116 631C143 631 159 609 159 582C159 555 143 533 116 533C89 533 73 555 73 582Z"  horiz-adv-x="229" vert-adv-y="1000"  />

      
      <glyph glyph-name="unia8" unicode="&#xa8;" d="M393 582C424 594 456 621 473 656C455 689 429 716 395 733C362 720 332 690 316 659C334 625 359 598 393 582ZM166 584C197 596 229 623 246 658C228 691 202 718 168 735C135 722 105 692 89 661C107 627 132 600 166 584Z"  horiz-adv-x="560" vert-adv-y="1000"  />

      
      <glyph glyph-name="unif7" unicode="&#xf7;" d="M66 407C58 371 57 336 71 302L455 312C470 346 469 381 460 415ZM182 180C182 138 220 103 267 103C313 103 350 138 350 180C350 222 313 258 267 258C220 258 182 222 182 180ZM184 538C184 494 222 460 269 460C315 460 352 494 352 538C352 579 315 615 269 615C222 615 184 579 184 538Z"  horiz-adv-x="527" vert-adv-y="1000"  />

      
      <glyph glyph-name="uni24" unicode="&#x24;" d="M192 2L178-96C208-112 266-117 294-96L282 3C388 21 443 103 443 178C443 287 362 336 266 390C217 418 173 444 173 489C173 527 205 547 257 547C311 547 360 524 398 497C431 508 448 568 443 606C405 624 360 639 304 645L314 748C292 757 221 757 202 750L214 646C113 636 61 575 61 492C61 396 119 354 183 318L219 298C274 268 323 240 323 177C323 137 297 98 237 98C178 98 141 124 97 168C66 140 43 75 53 43C87 23 131 10 192 2Z"  horiz-adv-x="494" vert-adv-y="1000"  />

      
      <glyph glyph-name="uni02D9" unicode="&#x02D9;" d="M131 589C162 601 194 628 211 663C193 696 167 723 133 740C100 727 70 697 54 666C72 632 97 605 131 589Z"  horiz-adv-x="280" vert-adv-y="1000"  />

      
      <glyph glyph-name="uni0131" unicode="&#x0131;" d="M213 494C165 509 135 507 88 498L76 93C74 17 114-11 170-13C205-14 244-3 266 11C281 39 281 83 266 98C206 78 195 99 198 171Z"  horiz-adv-x="275" vert-adv-y="1000"  />

      
      <glyph glyph-name="uni65" unicode="&#x65;" d="M159 226C303 195 515 204 515 368C515 427 477 512 311 512C155 512 40 405 40 247C40 86 139 0 270-10C360-17 437 11 493 58C508 103 491 131 465 150C422 113 372 89 311 89C205 89 159 148 159 226ZM156 292C161 349 202 415 317 415C367 415 402 395 402 351C402 265 204 282 156 292Z"  horiz-adv-x="545" vert-adv-y="1000"  />

      
      <glyph glyph-name="unie9" unicode="&#xe9;" d="M159 226C303 195 515 204 515 368C515 427 477 512 311 512C155 512 40 405 40 247C40 86 139 0 270-10C360-17 437 11 493 58C508 103 491 131 465 150C422 113 372 89 311 89C205 89 159 148 159 226ZM156 292C161 349 202 415 317 415C367 415 402 395 402 351C402 265 204 282 156 292ZM289 726L240 587C245 577 287 566 303 573L418 719C394 738 298 741 289 726Z"  horiz-adv-x="547" vert-adv-y="1000"  />

      
      </font>
</defs>
</svg>
